<svg width="1920" height="1080" viewBox="0 0 1920 1080" fill="none" xmlns="http://www.w3.org/2000/svg">
<g clip-path="url(#clip0_184_47)">
<rect width="1920" height="1080" fill="white"/>
<g clip-path="url(#clip1_184_47)">
<g filter="url(#filter0_d_184_47)">
<path d="M66.6034 129.393L657.964 608.113C662.037 611.41 664.633 616.19 665.181 621.402C665.73 626.613 664.186 631.829 660.889 635.902L22.5169 1424.48C19.2198 1428.55 14.4398 1431.15 9.22847 1431.7C4.01712 1432.25 -1.19872 1430.7 -5.27159 1427.4L-596.632 948.684C-600.705 945.386 -603.301 940.606 -603.85 935.395C-604.398 930.184 -602.854 924.968 -599.557 920.895L38.8149 132.318C42.112 128.245 46.892 125.649 52.1033 125.1C57.3147 124.552 62.5305 126.096 66.6034 129.393Z" fill="#0E77FF"/>
</g>
<path d="M406.761 939.84L-212.034 438.91L-433.967 713.062L184.828 1213.99L406.761 939.84Z" fill="white"/>
<path d="M619.654 676.852L658.181 629.26C659.492 627.641 660.471 625.779 661.063 623.781C661.655 621.784 661.847 619.689 661.629 617.618C661.411 615.546 660.787 613.537 659.793 611.706C658.798 609.875 657.453 608.259 655.834 606.948L61.6994 125.982C58.429 123.335 54.2411 122.095 50.0569 122.536C45.8728 122.977 42.035 125.061 39.3878 128.332L0.860255 175.924L619.654 676.852Z" fill="white"/>
<path d="M554.391 556.256L233.456 296.452L215.756 318.316L536.691 578.12L554.391 556.256Z" fill="#F0F6FF"/>
<path d="M630.838 618.142L608.974 600.442L591.274 622.306L613.138 640.006L630.838 618.142Z" fill="#F0F6FF"/>
<path d="M590.995 585.889L578.261 575.58C575.74 573.539 572.042 573.928 570.001 576.449L559.692 589.184C557.651 591.705 558.041 595.403 560.562 597.444L573.296 607.753C575.817 609.793 579.515 609.404 581.556 606.883L591.865 594.149C593.906 591.628 593.517 587.929 590.995 585.889Z" fill="#F0F6FF"/>
<path d="M520.099 667.104L309.214 496.387L169.627 668.818L380.513 839.535L520.099 667.104Z" fill="white"/>
<path d="M237.264 438.143L26.3789 267.426L6.79688 291.615L217.682 462.332L237.264 438.143Z" fill="white"/>
<path d="M197.096 487.763L-13.7897 317.046L-21.0703 326.039L189.815 496.756L197.096 487.763Z" fill="white"/>
<path d="M151.918 481.478L-28.6021 335.343L-35.8827 344.337L144.637 490.472L151.918 481.478Z" fill="white"/>
<path d="M62.0285 438.999L-43.4143 353.641L-50.695 362.635L54.7478 447.993L62.0285 438.999Z" fill="white"/>
<path d="M91.8748 493.448L-58.2261 371.938L-65.5067 380.931L84.5941 502.442L91.8748 493.448Z" fill="white"/>
<path d="M181.532 1048.33L-29.3535 877.614L-36.6342 886.608L174.251 1057.32L181.532 1048.33Z" fill="#F0F6FF"/>
<path d="M134.942 1040.9L-12.3881 921.636L-19.6687 930.63L127.661 1049.9L134.942 1040.9Z" fill="#F0F6FF"/>
<path d="M102.774 1045.92L-10.5974 954.145L-17.8781 963.139L95.4932 1054.92L102.774 1045.92Z" fill="#F0F6FF"/>
<path d="M218.635 893.7L114.162 809.127L45.0115 894.549L149.484 979.122L218.635 893.7Z" fill="#F0F6FF"/>
<g filter="url(#filter1_d_184_47)">
<path d="M945.078 919.139L712.566 730.915C708.125 727.32 701.611 728.005 698.016 732.446L357.466 1153.13C353.871 1157.57 354.557 1164.08 358.998 1167.68L591.51 1355.9C595.951 1359.49 602.465 1358.81 606.06 1354.37L946.61 933.689C950.205 929.248 949.519 922.734 945.078 919.139Z" fill="white"/>
</g>
<path d="M836.522 1060.1L936.176 937.004C939.569 932.811 941.159 927.441 940.594 922.077C940.029 916.712 937.356 911.792 933.164 908.398L717.498 733.811C715.422 732.131 713.035 730.875 710.474 730.117C707.913 729.359 705.228 729.112 702.571 729.392C699.915 729.671 697.34 730.471 694.993 731.746C692.645 733.021 690.572 734.745 688.891 736.821L589.238 859.922L836.522 1060.1Z" fill="#0E77FF"/>
<path d="M755.841 764.851L756.506 765.39C758.622 767.102 760.228 769.361 761.152 771.921C762.076 774.482 762.281 777.246 761.746 779.915L758.957 793.847C758.378 796.732 758.6 799.721 759.599 802.489C760.597 805.257 762.335 807.699 764.622 809.55L809.827 846.144L828.21 823.436" fill="white"/>
<path d="M894.821 877.358L894.154 876.819C892.039 875.107 889.495 874.006 886.799 873.636C884.103 873.266 881.357 873.64 878.858 874.719L865.812 880.349C863.111 881.515 860.142 881.92 857.227 881.52C854.312 881.119 851.562 879.929 849.275 878.078L804.069 841.483L822.452 818.774" fill="white"/>
<path d="M743.721 1099.62L575.673 963.579L553.781 990.623L721.829 1126.66L743.721 1099.62Z" fill="#F0F6FF"/>
<path d="M701.643 1151.6L533.595 1015.56L511.702 1042.6L679.75 1178.64L701.643 1151.6Z" fill="#F0F6FF"/>
<path d="M583.684 1142.15L495.098 1070.44L473.206 1097.48L561.791 1169.2L583.684 1142.15Z" fill="#0E77FF"/>
<path d="M835.717 921.585L727.578 834.043L640.037 942.182L748.176 1029.72L835.717 921.585Z" fill="#F0F6FF"/>
<g filter="url(#filter2_d_184_47)">
<path d="M1024.98 460.355L693.272 191.832C689.848 189.06 684.826 189.589 682.055 193.013L520.008 393.188C517.236 396.612 517.765 401.634 521.189 404.405L852.894 672.928C856.317 675.7 861.339 675.171 864.111 671.748L1026.16 471.572C1028.93 468.148 1028.4 463.126 1024.98 460.355Z" fill="white"/>
</g>
<path d="M732.757 284.144L691.338 250.614L681.094 263.269L722.513 296.799L732.757 284.144Z" fill="#0E77FF"/>
<path d="M816.139 351.644L740.932 290.761L730.687 303.416L805.895 364.299L816.139 351.644Z" fill="#F0F6FF"/>
<path d="M963.557 470.982L824.314 358.261L814.07 370.916L953.313 483.637L963.557 470.982Z" fill="#0E77FF"/>
<path d="M743.52 337.711L669.403 277.711L659.158 290.366L733.275 350.366L743.52 337.711Z" fill="#0E77FF"/>
<path d="M868.321 438.74L751.695 344.329L741.45 356.984L858.076 451.395L868.321 438.74Z" fill="#0E77FF"/>
<path d="M767.091 401.646L677.987 329.514L667.742 342.169L756.847 414.301L767.091 401.646Z" fill="#F0F6FF"/>
<path d="M669.812 322.896L647.468 304.808L637.223 317.463L659.567 335.551L669.812 322.896Z" fill="#0E77FF"/>
<path d="M919.686 525.175L775.266 408.264L765.022 420.919L909.442 537.83L919.686 525.175Z" fill="#F0F6FF"/>
<path d="M777.581 454.992L699.649 391.904L689.404 404.559L767.337 467.647L777.581 454.992Z" fill="#0E77FF"/>
<path d="M846.25 510.582L785.757 461.611L775.512 474.266L836.006 523.237L846.25 510.582Z" fill="#0E77FF"/>
<path d="M897.751 552.272L854.424 517.199L844.18 529.854L887.506 564.927L897.751 552.272Z" fill="#0E77FF"/>
<path d="M691.475 385.287L625.532 331.905L615.287 344.56L681.23 397.942L691.475 385.287Z" fill="#F0F6FF"/>
<path d="M702.783 439.296L603.596 359.002L593.351 371.657L692.539 451.951L702.783 439.296Z" fill="#0E77FF"/>
<path d="M807.691 524.222L710.957 445.913L700.713 458.568L797.447 536.877L807.691 524.222Z" fill="#F0F6FF"/>
<g filter="url(#filter3_d_184_47)">
<path d="M1021.1 713.347L957.49 661.969C946.29 652.923 929.877 654.669 920.83 665.869L869.452 729.48C860.406 740.68 862.152 757.093 873.352 766.14L936.963 817.517C948.163 826.564 964.577 824.818 973.623 813.617L1025 750.007C1034.05 738.807 1032.3 722.393 1021.1 713.347Z" fill="white"/>
</g>
<g filter="url(#filter4_d_184_47)">
<path d="M503.931 287.325L469.48 259.499C458.28 250.453 441.867 252.199 432.82 263.399L404.994 297.85C395.948 309.05 397.694 325.464 408.894 334.51L443.346 362.336C454.546 371.382 470.959 369.636 480.006 358.436L507.831 323.985C516.878 312.785 515.132 296.371 503.931 287.325Z" fill="#0E77FF"/>
</g>
<g filter="url(#filter5_d_184_47)">
<path d="M992.311 1125.22L928.7 1073.84C917.5 1064.79 901.087 1066.54 892.04 1077.74L840.662 1141.35C831.616 1152.55 833.362 1168.96 844.562 1178.01L908.173 1229.39C919.373 1238.43 935.787 1236.69 944.833 1225.49L996.211 1161.88C1005.26 1150.68 1003.51 1134.26 992.311 1125.22Z" fill="white"/>
</g>
</g>
<path d="M1915.84 745.964C1916.91 745.678 1917.88 745.106 1918.65 744.309C1919.42 743.513 1919.96 742.521 1920.21 741.441C1920.46 740.362 1920.41 739.235 1920.07 738.181C1919.72 737.127 1919.1 736.187 1918.26 735.461C1917.04 734.399 1915.45 733.866 1913.83 733.98C1912.22 734.093 1910.71 734.843 1909.65 736.065C1908.59 737.288 1908.06 738.882 1908.17 740.497C1908.28 742.112 1909.03 743.616 1910.25 744.677C1911.01 745.333 1911.91 745.793 1912.89 746.018C1913.86 746.242 1914.87 746.224 1915.84 745.964Z" fill="#0E77FF"/>
<path d="M1892.46 772.878C1893.53 772.592 1894.5 772.02 1895.27 771.223C1896.04 770.426 1896.58 769.435 1896.83 768.355C1897.07 767.275 1897.02 766.148 1896.68 765.095C1896.34 764.041 1895.72 763.101 1894.88 762.375C1893.66 761.313 1892.06 760.78 1890.45 760.893C1888.83 761.006 1887.33 761.757 1886.27 762.979C1885.2 764.201 1884.67 765.795 1884.78 767.41C1884.9 769.026 1885.65 770.53 1886.87 771.592C1887.62 772.247 1888.53 772.707 1889.5 772.932C1890.48 773.156 1891.49 773.137 1892.46 772.878Z" fill="#0E77FF"/>
<path d="M1869.07 799.791C1870.14 799.505 1871.11 798.933 1871.88 798.136C1872.65 797.34 1873.19 796.348 1873.44 795.268C1873.69 794.189 1873.64 793.062 1873.3 792.008C1872.95 790.954 1872.33 790.014 1871.49 789.288C1870.27 788.226 1868.68 787.693 1867.06 787.807C1865.45 787.92 1863.94 788.67 1862.88 789.892C1861.82 791.114 1861.29 792.708 1861.4 794.323C1861.51 795.939 1862.26 797.443 1863.49 798.504C1864.24 799.16 1865.14 799.62 1866.12 799.844C1867.09 800.069 1868.11 800.051 1869.07 799.791Z" fill="#0E77FF"/>
<path d="M1845.69 826.705C1846.76 826.418 1847.73 825.846 1848.5 825.048C1849.27 824.251 1849.81 823.26 1850.05 822.181C1850.3 821.101 1850.25 819.974 1849.91 818.921C1849.57 817.867 1848.95 816.926 1848.11 816.2C1846.89 815.137 1845.29 814.604 1843.68 814.718C1842.06 814.831 1840.56 815.581 1839.5 816.804C1838.43 818.027 1837.9 819.621 1838.01 821.237C1838.13 822.852 1838.88 824.357 1840.1 825.419C1840.86 826.074 1841.76 826.534 1842.73 826.759C1843.71 826.983 1844.72 826.965 1845.69 826.705Z" fill="#0E77FF"/>
<path d="M1822.3 853.616C1823.37 853.33 1824.35 852.758 1825.12 851.961C1825.89 851.164 1826.42 850.173 1826.67 849.093C1826.92 848.013 1826.87 846.886 1826.53 845.833C1826.19 844.779 1825.56 843.839 1824.73 843.113C1823.5 842.051 1821.91 841.518 1820.3 841.631C1818.68 841.745 1817.18 842.495 1816.11 843.717C1815.05 844.939 1814.52 846.533 1814.63 848.148C1814.75 849.763 1815.5 851.267 1816.72 852.329C1817.47 852.985 1818.38 853.445 1819.35 853.669C1820.32 853.894 1821.34 853.875 1822.3 853.616Z" fill="#0E77FF"/>
<path d="M1798.92 880.53C1799.99 880.244 1800.96 879.672 1801.73 878.875C1802.5 878.078 1803.04 877.086 1803.29 876.007C1803.54 874.927 1803.49 873.8 1803.15 872.746C1802.8 871.693 1802.18 870.752 1801.34 870.026C1800.12 868.964 1798.53 868.432 1796.91 868.545C1795.3 868.658 1793.79 869.408 1792.73 870.631C1791.67 871.853 1791.14 873.447 1791.25 875.062C1791.36 876.677 1792.11 878.181 1793.33 879.243C1794.09 879.898 1794.99 880.358 1795.97 880.583C1796.94 880.807 1797.95 880.789 1798.92 880.53Z" fill="#0E77FF"/>
<path d="M1915.34 693.775C1916.13 692.864 1916.63 691.739 1916.78 690.542C1916.94 689.345 1916.73 688.129 1916.19 687.05C1915.65 685.97 1914.81 685.074 1913.76 684.476C1912.71 683.877 1911.51 683.603 1910.31 683.687C1909.1 683.772 1907.95 684.211 1907 684.95C1906.04 685.689 1905.33 686.694 1904.95 687.839C1904.56 688.983 1904.53 690.215 1904.85 691.379C1905.16 692.544 1905.82 693.587 1906.73 694.379C1907.95 695.439 1909.55 695.971 1911.16 695.857C1912.77 695.744 1914.28 694.995 1915.34 693.775Z" fill="#0E77FF"/>
<path d="M1891.95 720.688C1892.74 719.777 1893.25 718.652 1893.4 717.455C1893.55 716.258 1893.35 715.043 1892.81 713.963C1892.27 712.883 1891.42 711.988 1890.37 711.389C1889.33 710.79 1888.12 710.516 1886.92 710.601C1885.72 710.685 1884.57 711.125 1883.61 711.864C1882.66 712.602 1881.94 713.608 1881.56 714.752C1881.18 715.897 1881.14 717.129 1881.46 718.293C1881.78 719.457 1882.44 720.501 1883.35 721.292C1884.57 722.352 1886.16 722.884 1887.77 722.771C1889.39 722.658 1890.89 721.909 1891.95 720.688Z" fill="#0E77FF"/>
<path d="M1868.57 747.602C1869.36 746.692 1869.86 745.566 1870.02 744.369C1870.17 743.172 1869.96 741.957 1869.42 740.877C1868.88 739.798 1868.04 738.902 1866.99 738.303C1865.94 737.705 1864.74 737.43 1863.54 737.515C1862.33 737.599 1861.18 738.039 1860.23 738.778C1859.27 739.517 1858.56 740.522 1858.18 741.666C1857.79 742.811 1857.76 744.043 1858.08 745.207C1858.39 746.371 1859.05 747.415 1859.96 748.206C1861.18 749.266 1862.78 749.798 1864.39 749.685C1866 749.572 1867.51 748.823 1868.57 747.602Z" fill="#0E77FF"/>
<path d="M1845.18 774.516C1845.98 773.605 1846.48 772.48 1846.63 771.283C1846.78 770.086 1846.58 768.871 1846.04 767.791C1845.5 766.711 1844.65 765.815 1843.6 765.217C1842.56 764.618 1841.36 764.344 1840.15 764.428C1838.95 764.513 1837.8 764.952 1836.84 765.691C1835.89 766.43 1835.17 767.435 1834.79 768.58C1834.41 769.724 1834.37 770.956 1834.69 772.121C1835.01 773.285 1835.67 774.328 1836.58 775.12C1837.8 776.181 1839.39 776.714 1841.01 776.601C1842.62 776.487 1844.12 775.737 1845.18 774.516Z" fill="#0E77FF"/>
<path d="M1821.8 801.429C1822.59 800.519 1823.09 799.393 1823.25 798.196C1823.4 796.999 1823.19 795.784 1822.65 794.704C1822.11 793.625 1821.27 792.729 1820.22 792.13C1819.17 791.532 1817.97 791.257 1816.77 791.342C1815.56 791.426 1814.41 791.866 1813.46 792.605C1812.5 793.344 1811.79 794.349 1811.41 795.493C1811.03 796.638 1810.99 797.87 1811.31 799.034C1811.63 800.198 1812.28 801.242 1813.19 802.033C1814.41 803.093 1816.01 803.625 1817.62 803.512C1819.23 803.398 1820.74 802.65 1821.8 801.429Z" fill="#0E77FF"/>
<path d="M1798.42 828.341C1799.21 827.43 1799.71 826.305 1799.86 825.108C1800.02 823.911 1799.81 822.695 1799.27 821.616C1798.73 820.536 1797.89 819.64 1796.84 819.041C1795.79 818.443 1794.59 818.169 1793.38 818.253C1792.18 818.337 1791.03 818.777 1790.08 819.516C1789.12 820.255 1788.41 821.26 1788.03 822.405C1787.64 823.549 1787.61 824.781 1787.93 825.945C1788.24 827.109 1788.9 828.153 1789.81 828.945C1791.03 830.005 1792.62 830.536 1794.24 830.423C1795.85 830.31 1797.35 829.561 1798.42 828.341Z" fill="#0E77FF"/>
<path d="M1775.03 855.254C1775.82 854.343 1776.33 853.218 1776.48 852.021C1776.63 850.824 1776.43 849.609 1775.89 848.529C1775.35 847.449 1774.5 846.553 1773.45 845.955C1772.41 845.356 1771.2 845.082 1770 845.166C1768.8 845.251 1767.64 845.69 1766.69 846.429C1765.74 847.168 1765.02 848.174 1764.64 849.318C1764.26 850.462 1764.22 851.695 1764.54 852.859C1764.86 854.023 1765.51 855.067 1766.43 855.858C1767.65 856.919 1769.24 857.452 1770.85 857.339C1772.47 857.225 1773.97 856.476 1775.03 855.254Z" fill="#0E77FF"/>
<path d="M1888.42 670.39C1889.22 669.48 1889.72 668.354 1889.87 667.157C1890.02 665.96 1889.82 664.745 1889.28 663.665C1888.74 662.585 1887.89 661.69 1886.84 661.091C1885.8 660.493 1884.6 660.218 1883.39 660.303C1882.19 660.387 1881.04 660.827 1880.08 661.566C1879.13 662.305 1878.42 663.31 1878.03 664.454C1877.65 665.599 1877.62 666.831 1877.93 667.995C1878.25 669.159 1878.91 670.203 1879.82 670.994C1881.04 672.054 1882.63 672.586 1884.25 672.473C1885.86 672.36 1887.36 671.611 1888.42 670.39Z" fill="#0E77FF"/>
<path d="M1865.04 697.304C1865.83 696.393 1866.33 695.268 1866.49 694.071C1866.64 692.874 1866.43 691.658 1865.89 690.579C1865.36 689.499 1864.51 688.603 1863.46 688.005C1862.41 687.406 1861.21 687.132 1860.01 687.216C1858.8 687.301 1857.65 687.74 1856.7 688.479C1855.74 689.218 1855.03 690.223 1854.65 691.368C1854.27 692.512 1854.23 693.744 1854.55 694.908C1854.87 696.073 1855.52 697.116 1856.43 697.908C1857.65 698.968 1859.25 699.5 1860.86 699.386C1862.48 699.273 1863.98 698.524 1865.04 697.304Z" fill="#0E77FF"/>
<path d="M1841.65 724.218C1842.45 723.307 1842.95 722.182 1843.1 720.985C1843.25 719.788 1843.05 718.573 1842.51 717.493C1841.97 716.413 1841.12 715.517 1840.08 714.919C1839.03 714.32 1837.83 714.046 1836.62 714.13C1835.42 714.215 1834.27 714.654 1833.31 715.393C1832.36 716.132 1831.65 717.138 1831.26 718.282C1830.88 719.426 1830.85 720.658 1831.16 721.823C1831.48 722.987 1832.14 724.031 1833.05 724.822C1834.27 725.882 1835.86 726.414 1837.48 726.301C1839.09 726.187 1840.59 725.438 1841.65 724.218Z" fill="#0E77FF"/>
<path d="M1818.27 751.132C1819.06 750.221 1819.57 749.096 1819.72 747.899C1819.87 746.701 1819.66 745.486 1819.12 744.406C1818.59 743.327 1817.74 742.431 1816.69 741.832C1815.64 741.234 1814.44 740.959 1813.24 741.044C1812.03 741.128 1810.88 741.568 1809.93 742.307C1808.97 743.046 1808.26 744.051 1807.88 745.195C1807.5 746.34 1807.46 747.572 1807.78 748.736C1808.1 749.9 1808.75 750.944 1809.66 751.736C1810.88 752.797 1812.48 753.329 1814.09 753.216C1815.71 753.103 1817.21 752.353 1818.27 751.132Z" fill="#0E77FF"/>
<path d="M1794.89 778.045C1795.68 777.134 1796.18 776.009 1796.33 774.812C1796.48 773.615 1796.28 772.4 1795.74 771.32C1795.2 770.24 1794.35 769.344 1793.31 768.746C1792.26 768.147 1791.06 767.873 1789.85 767.957C1788.65 768.042 1787.5 768.481 1786.54 769.22C1785.59 769.959 1784.88 770.965 1784.49 772.109C1784.11 773.253 1784.08 774.486 1784.39 775.65C1784.71 776.814 1785.37 777.858 1786.28 778.649C1787.5 779.709 1789.09 780.24 1790.71 780.127C1792.32 780.014 1793.82 779.265 1794.89 778.045Z" fill="#0E77FF"/>
<path d="M1771.5 804.956C1772.29 804.045 1772.8 802.92 1772.95 801.723C1773.1 800.526 1772.9 799.311 1772.36 798.231C1771.82 797.151 1770.97 796.256 1769.92 795.657C1768.88 795.059 1767.67 794.784 1766.47 794.869C1765.27 794.953 1764.12 795.393 1763.16 796.132C1762.21 796.87 1761.49 797.876 1761.11 799.02C1760.73 800.165 1760.69 801.397 1761.01 802.561C1761.33 803.725 1761.99 804.769 1762.9 805.56C1764.12 806.62 1765.71 807.152 1767.32 807.039C1768.94 806.926 1770.44 806.177 1771.5 804.956Z" fill="#0E77FF"/>
<path d="M1748.12 831.87C1748.91 830.959 1749.41 829.834 1749.57 828.637C1749.72 827.44 1749.51 826.224 1748.97 825.145C1748.43 824.065 1747.59 823.169 1746.54 822.571C1745.49 821.972 1744.29 821.698 1743.09 821.782C1741.88 821.866 1740.73 822.306 1739.78 823.045C1738.82 823.784 1738.11 824.789 1737.73 825.934C1737.34 827.078 1737.31 828.31 1737.63 829.474C1737.95 830.638 1738.6 831.682 1739.51 832.474C1740.73 833.535 1742.33 834.068 1743.94 833.954C1745.55 833.841 1747.06 833.091 1748.12 831.87Z" fill="#0E77FF"/>
<path d="M1861.51 647.006C1862.3 646.095 1862.81 644.97 1862.96 643.773C1863.11 642.576 1862.9 641.361 1862.36 640.281C1861.83 639.201 1860.98 638.305 1859.93 637.707C1858.88 637.108 1857.68 636.834 1856.48 636.918C1855.27 637.003 1854.12 637.442 1853.17 638.181C1852.22 638.92 1851.5 639.925 1851.12 641.07C1850.74 642.214 1850.7 643.446 1851.02 644.611C1851.34 645.775 1851.99 646.818 1852.9 647.61C1853.51 648.135 1854.21 648.537 1854.97 648.791C1855.73 649.045 1856.53 649.147 1857.33 649.091C1858.13 649.034 1858.91 648.821 1859.63 648.464C1860.35 648.106 1860.99 647.611 1861.51 647.006Z" fill="#0E77FF"/>
<path d="M1838.13 673.919C1838.92 673.009 1839.42 671.883 1839.57 670.686C1839.73 669.489 1839.52 668.274 1838.98 667.194C1838.44 666.115 1837.59 665.219 1836.55 664.62C1835.5 664.022 1834.3 663.747 1833.09 663.832C1831.89 663.916 1830.74 664.356 1829.78 665.095C1828.83 665.834 1828.12 666.839 1827.73 667.983C1827.35 669.128 1827.32 670.36 1827.63 671.524C1827.95 672.688 1828.61 673.732 1829.52 674.523C1830.12 675.049 1830.83 675.45 1831.59 675.704C1832.35 675.958 1833.15 676.06 1833.95 676.004C1834.75 675.948 1835.53 675.735 1836.24 675.377C1836.96 675.02 1837.6 674.524 1838.13 673.919Z" fill="#0E77FF"/>
<path d="M1814.74 700.834C1815.53 699.923 1816.04 698.798 1816.19 697.601C1816.34 696.403 1816.13 695.188 1815.6 694.108C1815.06 693.029 1814.21 692.133 1813.16 691.534C1812.11 690.936 1810.91 690.661 1809.71 690.746C1808.51 690.83 1807.35 691.27 1806.4 692.009C1805.45 692.748 1804.73 693.753 1804.35 694.898C1803.97 696.042 1803.93 697.274 1804.25 698.438C1804.57 699.602 1805.22 700.646 1806.13 701.438C1806.74 701.963 1807.44 702.364 1808.2 702.618C1808.96 702.872 1809.76 702.974 1810.56 702.918C1811.36 702.862 1812.14 702.649 1812.86 702.292C1813.58 701.934 1814.22 701.438 1814.74 700.834Z" fill="#0E77FF"/>
<path d="M1791.36 727.747C1792.15 726.836 1792.65 725.711 1792.8 724.514C1792.96 723.317 1792.75 722.102 1792.21 721.022C1791.67 719.942 1790.83 719.046 1789.78 718.448C1788.73 717.849 1787.53 717.575 1786.32 717.659C1785.12 717.744 1783.97 718.183 1783.01 718.922C1782.06 719.661 1781.35 720.667 1780.97 721.811C1780.58 722.955 1780.55 724.188 1780.87 725.352C1781.18 726.516 1781.84 727.56 1782.75 728.351C1783.35 728.876 1784.06 729.278 1784.82 729.532C1785.58 729.786 1786.38 729.888 1787.18 729.832C1787.98 729.776 1788.76 729.563 1789.47 729.205C1790.19 728.847 1790.83 728.352 1791.36 727.747Z" fill="#0E77FF"/>
<path d="M1767.97 754.661C1768.76 753.75 1769.27 752.625 1769.42 751.428C1769.57 750.231 1769.37 749.015 1768.83 747.936C1768.29 746.856 1767.44 745.96 1766.39 745.361C1765.35 744.763 1764.14 744.488 1762.94 744.573C1761.74 744.657 1760.58 745.097 1759.63 745.836C1758.68 746.575 1757.96 747.58 1757.58 748.725C1757.2 749.869 1757.16 751.101 1757.48 752.265C1757.8 753.429 1758.45 754.473 1759.37 755.265C1759.97 755.79 1760.67 756.191 1761.43 756.445C1762.19 756.699 1762.99 756.801 1763.79 756.745C1764.59 756.689 1765.37 756.476 1766.09 756.119C1766.81 755.761 1767.45 755.265 1767.97 754.661Z" fill="#0E77FF"/>
<path d="M1744.59 781.572C1745.38 780.661 1745.88 779.536 1746.04 778.339C1746.19 777.142 1745.98 775.927 1745.44 774.847C1744.91 773.767 1744.06 772.871 1743.01 772.273C1741.96 771.674 1740.76 771.4 1739.56 771.484C1738.35 771.569 1737.2 772.008 1736.25 772.747C1735.29 773.486 1734.58 774.491 1734.2 775.636C1733.82 776.78 1733.78 778.012 1734.1 779.176C1734.42 780.341 1735.07 781.384 1735.98 782.176C1736.59 782.701 1737.29 783.103 1738.05 783.357C1738.81 783.611 1739.61 783.713 1740.41 783.656C1741.21 783.6 1741.99 783.387 1742.71 783.03C1743.42 782.672 1744.06 782.177 1744.59 781.572Z" fill="#0E77FF"/>
<path d="M1721.21 808.485C1722 807.575 1722.5 806.449 1722.65 805.252C1722.8 804.055 1722.6 802.84 1722.06 801.76C1721.52 800.68 1720.67 799.785 1719.63 799.186C1718.58 798.588 1717.38 798.313 1716.17 798.398C1714.97 798.482 1713.82 798.922 1712.86 799.661C1711.91 800.4 1711.2 801.405 1710.81 802.549C1710.43 803.694 1710.4 804.926 1710.71 806.09C1711.03 807.254 1711.69 808.298 1712.6 809.089C1713.2 809.615 1713.91 810.016 1714.67 810.27C1715.43 810.524 1716.23 810.626 1717.03 810.57C1717.83 810.514 1718.61 810.301 1719.32 809.943C1720.04 809.586 1720.68 809.09 1721.21 808.485Z" fill="#0E77FF"/>
<path d="M1834.6 623.623C1835.39 622.712 1835.9 621.587 1836.05 620.389C1836.2 619.19 1836 617.974 1835.46 616.893C1834.92 615.812 1834.07 614.914 1833.03 614.315C1831.98 613.715 1830.77 613.44 1829.57 613.523C1828.37 613.607 1827.21 614.047 1826.26 614.786C1825.3 615.525 1824.59 616.531 1824.2 617.676C1823.82 618.821 1823.78 620.055 1824.1 621.22C1824.42 622.385 1825.08 623.43 1825.99 624.223C1827.21 625.285 1828.8 625.818 1830.42 625.706C1832.03 625.593 1833.54 624.844 1834.6 623.623Z" fill="#0E77FF"/>
<path d="M1811.22 650.537C1812.01 649.626 1812.51 648.5 1812.67 647.302C1812.82 646.104 1812.61 644.888 1812.08 643.806C1811.54 642.725 1810.69 641.828 1809.64 641.228C1808.59 640.629 1807.39 640.353 1806.19 640.437C1804.98 640.521 1803.83 640.96 1802.87 641.699C1801.92 642.438 1801.2 643.444 1800.82 644.59C1800.44 645.735 1800.4 646.968 1800.72 648.134C1801.04 649.299 1801.69 650.344 1802.6 651.136C1803.82 652.198 1805.42 652.732 1807.03 652.619C1808.65 652.507 1810.15 651.758 1811.22 650.537Z" fill="#0E77FF"/>
<path d="M1787.83 677.451C1788.62 676.54 1789.13 675.414 1789.28 674.216C1789.43 673.018 1789.23 671.802 1788.69 670.721C1788.15 669.639 1787.3 668.742 1786.26 668.142C1785.21 667.543 1784.01 667.267 1782.8 667.351C1781.6 667.435 1780.44 667.874 1779.49 668.613C1778.53 669.353 1777.82 670.358 1777.43 671.504C1777.05 672.649 1777.02 673.882 1777.33 675.048C1777.65 676.213 1778.31 677.258 1779.22 678.05C1780.44 679.112 1782.03 679.646 1783.65 679.533C1785.26 679.421 1786.77 678.672 1787.83 677.451Z" fill="#0E77FF"/>
<path d="M1764.45 704.365C1765.24 703.454 1765.74 702.328 1765.9 701.13C1766.05 699.932 1765.84 698.715 1765.31 697.634C1764.77 696.553 1763.92 695.656 1762.87 695.056C1761.82 694.456 1760.62 694.181 1759.42 694.265C1758.21 694.348 1757.06 694.788 1756.1 695.527C1755.15 696.266 1754.43 697.272 1754.05 698.417C1753.67 699.563 1753.63 700.796 1753.95 701.961C1754.27 703.127 1754.92 704.171 1755.83 704.964C1756.44 705.491 1757.14 705.893 1757.9 706.148C1758.66 706.403 1759.46 706.505 1760.26 706.449C1761.06 706.394 1761.84 706.181 1762.56 705.823C1763.28 705.466 1763.92 704.97 1764.45 704.365Z" fill="#0E77FF"/>
<path d="M1741.06 731.278C1741.85 730.367 1742.36 729.241 1742.51 728.043C1742.67 726.845 1742.46 725.629 1741.92 724.548C1741.38 723.466 1740.54 722.569 1739.49 721.969C1738.44 721.37 1737.24 721.094 1736.03 721.178C1734.83 721.262 1733.67 721.701 1732.72 722.44C1731.76 723.18 1731.05 724.185 1730.67 725.331C1730.28 726.476 1730.25 727.709 1730.56 728.875C1730.88 730.04 1731.54 731.085 1732.45 731.878C1733.67 732.939 1735.26 733.472 1736.88 733.36C1738.49 733.248 1740 732.499 1741.06 731.278Z" fill="#0E77FF"/>
<path d="M1717.68 758.189C1718.47 757.278 1718.97 756.152 1719.13 754.954C1719.28 753.756 1719.07 752.54 1718.53 751.46C1717.99 750.38 1717.15 749.483 1716.1 748.884C1715.05 748.285 1713.85 748.01 1712.64 748.095C1711.44 748.179 1710.29 748.618 1709.33 749.357C1708.38 750.096 1707.66 751.102 1707.28 752.247C1706.89 753.392 1706.86 754.624 1707.18 755.789C1707.49 756.954 1708.15 757.999 1709.06 758.792C1709.66 759.319 1710.37 759.721 1711.13 759.976C1711.89 760.23 1712.69 760.333 1713.49 760.277C1714.29 760.221 1715.08 760.008 1715.79 759.649C1716.51 759.291 1717.15 758.795 1717.68 758.189Z" fill="#0E77FF"/>
<path d="M1694.29 785.103C1695.09 784.192 1695.59 783.066 1695.75 781.868C1695.9 780.67 1695.69 779.453 1695.15 778.372C1694.62 777.291 1693.77 776.394 1692.72 775.794C1691.67 775.194 1690.47 774.919 1689.26 775.003C1688.06 775.087 1686.91 775.526 1685.95 776.265C1685 777.004 1684.28 778.01 1683.9 779.156C1683.51 780.301 1683.48 781.534 1683.8 782.699C1684.11 783.865 1684.77 784.91 1685.68 785.702C1686.9 786.764 1688.5 787.298 1690.11 787.185C1691.73 787.073 1693.23 786.324 1694.29 785.103Z" fill="#0E77FF"/>
<path d="M1932.98 945.261C1933.77 944.35 1934.28 943.225 1934.43 942.028C1934.58 940.831 1934.37 939.615 1933.84 938.536C1933.3 937.456 1932.45 936.56 1931.4 935.962C1930.35 935.363 1929.15 935.089 1927.95 935.173C1926.75 935.258 1925.59 935.697 1924.64 936.436C1923.69 937.175 1922.97 938.18 1922.59 939.325C1922.21 940.469 1922.17 941.701 1922.49 942.865C1922.81 944.03 1923.46 945.073 1924.37 945.865C1925.6 946.925 1927.19 947.457 1928.8 947.343C1930.42 947.23 1931.92 946.481 1932.98 945.261Z" fill="#0E77FF"/>
<path d="M1909.6 972.174C1910.39 971.263 1910.89 970.138 1911.04 968.941C1911.2 967.744 1910.99 966.529 1910.45 965.449C1909.91 964.369 1909.07 963.474 1908.02 962.875C1906.97 962.277 1905.77 962.002 1904.56 962.087C1903.36 962.171 1902.21 962.611 1901.26 963.35C1900.3 964.089 1899.59 965.094 1899.21 966.238C1898.82 967.383 1898.79 968.615 1899.11 969.779C1899.42 970.943 1900.08 971.987 1900.99 972.778C1902.21 973.84 1903.8 974.372 1905.42 974.259C1907.03 974.146 1908.54 973.396 1909.6 972.174Z" fill="#0E77FF"/>
<path d="M1929.45 894.965C1930.24 894.054 1930.75 892.929 1930.9 891.732C1931.05 890.535 1930.84 889.32 1930.3 888.24C1929.77 887.16 1928.92 886.264 1927.87 885.666C1926.82 885.067 1925.62 884.793 1924.42 884.877C1923.21 884.962 1922.06 885.401 1921.11 886.14C1920.16 886.879 1919.44 887.885 1919.06 889.029C1918.68 890.174 1918.64 891.406 1918.96 892.57C1919.28 893.734 1919.93 894.778 1920.84 895.569C1922.07 896.629 1923.66 897.161 1925.27 897.047C1926.89 896.934 1928.39 896.185 1929.45 894.965Z" fill="#0E77FF"/>
<path d="M1906.07 921.876C1906.86 920.966 1907.36 919.84 1907.52 918.643C1907.67 917.446 1907.46 916.231 1906.92 915.151C1906.38 914.072 1905.54 913.176 1904.49 912.577C1903.44 911.979 1902.24 911.704 1901.04 911.789C1899.83 911.873 1898.68 912.313 1897.73 913.052C1896.77 913.791 1896.06 914.796 1895.68 915.94C1895.29 917.085 1895.26 918.317 1895.58 919.481C1895.89 920.645 1896.55 921.689 1897.46 922.48C1898.68 923.54 1900.28 924.072 1901.89 923.959C1903.5 923.846 1905.01 923.097 1906.07 921.876Z" fill="#0E77FF"/>
<path d="M1882.68 948.79C1883.48 947.879 1883.98 946.754 1884.13 945.557C1884.28 944.36 1884.08 943.145 1883.54 942.065C1883 940.985 1882.15 940.089 1881.1 939.491C1880.06 938.892 1878.86 938.618 1877.65 938.702C1876.45 938.787 1875.3 939.226 1874.34 939.965C1873.39 940.704 1872.68 941.709 1872.29 942.854C1871.91 943.998 1871.88 945.23 1872.19 946.395C1872.51 947.559 1873.17 948.602 1874.08 949.394C1875.3 950.454 1876.89 950.986 1878.51 950.872C1880.12 950.759 1881.62 950.01 1882.68 948.79Z" fill="#0E77FF"/>
<path d="M1925.92 844.667C1926.71 843.756 1927.22 842.631 1927.37 841.434C1927.52 840.237 1927.31 839.022 1926.78 837.942C1926.24 836.862 1925.39 835.967 1924.34 835.368C1923.29 834.769 1922.09 834.495 1920.89 834.58C1919.69 834.664 1918.53 835.103 1917.58 835.842C1916.63 836.581 1915.91 837.587 1915.53 838.731C1915.15 839.876 1915.11 841.108 1915.43 842.272C1915.75 843.436 1916.4 844.48 1917.31 845.271C1918.54 846.332 1920.13 846.865 1921.74 846.752C1923.36 846.639 1924.86 845.889 1925.92 844.667Z" fill="#0E77FF"/>
<path d="M1902.54 871.581C1903.33 870.67 1903.83 869.545 1903.98 868.348C1904.14 867.151 1903.93 865.935 1903.39 864.856C1902.85 863.776 1902.01 862.88 1900.96 862.282C1899.91 861.683 1898.71 861.409 1897.5 861.493C1896.3 861.578 1895.15 862.017 1894.2 862.756C1893.24 863.495 1892.53 864.5 1892.15 865.645C1891.76 866.789 1891.73 868.021 1892.05 869.185C1892.36 870.35 1893.02 871.393 1893.93 872.185C1895.15 873.245 1896.75 873.776 1898.36 873.663C1899.97 873.55 1901.48 872.801 1902.54 871.581Z" fill="#0E77FF"/>
<path d="M1879.16 898.492C1879.95 897.581 1880.45 896.456 1880.6 895.259C1880.75 894.062 1880.55 892.847 1880.01 891.767C1879.47 890.687 1878.62 889.791 1877.58 889.193C1876.53 888.594 1875.33 888.32 1874.12 888.404C1872.92 888.489 1871.77 888.928 1870.81 889.667C1869.86 890.406 1869.15 891.412 1868.76 892.556C1868.38 893.7 1868.35 894.933 1868.66 896.097C1868.98 897.261 1869.64 898.305 1870.55 899.096C1871.77 900.156 1873.36 900.688 1874.98 900.575C1876.59 900.461 1878.09 899.712 1879.16 898.492Z" fill="#0E77FF"/>
<path d="M1855.77 925.406C1856.56 924.495 1857.07 923.37 1857.22 922.172C1857.37 920.975 1857.16 919.76 1856.62 918.68C1856.09 917.601 1855.24 916.705 1854.19 916.106C1853.14 915.508 1851.94 915.233 1850.74 915.318C1849.53 915.402 1848.38 915.842 1847.43 916.581C1846.47 917.32 1845.76 918.325 1845.38 919.469C1845 920.614 1844.96 921.846 1845.28 923.01C1845.6 924.174 1846.25 925.218 1847.16 926.009C1848.39 927.069 1849.98 927.601 1851.59 927.488C1853.21 927.375 1854.71 926.626 1855.77 925.406Z" fill="#0E77FF"/>
<path d="M1922.39 794.369C1923.18 793.459 1923.69 792.333 1923.84 791.136C1923.99 789.939 1923.79 788.724 1923.25 787.644C1922.71 786.564 1921.86 785.669 1920.81 785.07C1919.77 784.472 1918.56 784.197 1917.36 784.282C1916.16 784.366 1915.01 784.806 1914.05 785.545C1913.1 786.284 1912.38 787.289 1912 788.433C1911.62 789.578 1911.58 790.81 1911.9 791.974C1912.22 793.138 1912.87 794.182 1913.79 794.973C1915.01 796.035 1916.6 796.567 1918.21 796.454C1919.83 796.341 1921.33 795.591 1922.39 794.369Z" fill="#0E77FF"/>
<path d="M1899.01 821.283C1899.8 820.372 1900.3 819.247 1900.46 818.05C1900.61 816.853 1900.4 815.637 1899.86 814.558C1899.32 813.478 1898.48 812.582 1897.43 811.984C1896.38 811.385 1895.18 811.111 1893.98 811.195C1892.77 811.28 1891.62 811.719 1890.67 812.458C1889.71 813.197 1889 814.202 1888.62 815.347C1888.23 816.491 1888.2 817.723 1888.52 818.887C1888.83 820.052 1889.49 821.095 1890.4 821.887C1891.62 822.948 1893.22 823.481 1894.83 823.367C1896.44 823.254 1897.95 822.504 1899.01 821.283Z" fill="#0E77FF"/>
<path d="M1875.62 848.196C1876.42 847.286 1876.92 846.16 1877.07 844.963C1877.22 843.766 1877.02 842.551 1876.48 841.471C1875.94 840.392 1875.09 839.496 1874.04 838.897C1873 838.299 1871.8 838.024 1870.59 838.109C1869.39 838.193 1868.24 838.633 1867.28 839.372C1866.33 840.111 1865.61 841.116 1865.23 842.26C1864.85 843.405 1864.82 844.637 1865.13 845.801C1865.45 846.965 1866.11 848.009 1867.02 848.8C1868.24 849.862 1869.83 850.394 1871.45 850.281C1873.06 850.168 1874.56 849.418 1875.62 848.196Z" fill="#0E77FF"/>
<path d="M1852.24 875.108C1853.03 874.197 1853.54 873.072 1853.69 871.875C1853.84 870.678 1853.63 869.462 1853.1 868.383C1852.56 867.303 1851.71 866.407 1850.66 865.808C1849.61 865.21 1848.41 864.936 1847.21 865.02C1846.01 865.104 1844.85 865.544 1843.9 866.283C1842.95 867.022 1842.23 868.027 1841.85 869.172C1841.47 870.316 1841.43 871.548 1841.75 872.712C1842.07 873.876 1842.72 874.92 1843.63 875.712C1844.86 876.773 1846.45 877.305 1848.06 877.192C1849.68 877.079 1851.18 876.329 1852.24 875.108Z" fill="#0E77FF"/>
<path d="M1828.86 902.021C1829.65 901.11 1830.15 899.985 1830.3 898.788C1830.46 897.591 1830.25 896.376 1829.71 895.296C1829.17 894.216 1828.33 893.32 1827.28 892.722C1826.23 892.123 1825.03 891.849 1823.82 891.933C1822.62 892.018 1821.47 892.457 1820.52 893.196C1819.56 893.935 1818.85 894.941 1818.47 896.085C1818.08 897.229 1818.05 898.462 1818.37 899.626C1818.68 900.79 1819.34 901.834 1820.25 902.625C1821.47 903.686 1823.06 904.219 1824.68 904.106C1826.29 903.992 1827.8 903.243 1828.86 902.021Z" fill="#0E77FF"/>
<path d="M1773.21 907.61C1773.99 907.705 1774.77 907.65 1775.53 907.447C1776.6 907.161 1777.57 906.589 1778.34 905.792C1779.11 904.995 1779.65 904.004 1779.9 902.924C1780.15 901.844 1780.1 900.717 1779.76 899.663C1779.42 898.61 1778.79 897.67 1777.95 896.944C1776.73 895.882 1775.14 895.349 1773.52 895.462C1771.91 895.575 1770.4 896.326 1769.34 897.548C1768.28 898.77 1767.75 900.364 1767.86 901.979C1767.97 903.594 1768.72 905.098 1769.95 906.16C1770.86 906.959 1772 907.464 1773.21 907.61Z" fill="#0E77FF"/>
<path d="M1752.15 934.357C1753.22 934.071 1754.19 933.499 1754.96 932.702C1755.73 931.906 1756.27 930.914 1756.52 929.834C1756.77 928.755 1756.72 927.628 1756.38 926.574C1756.03 925.52 1755.41 924.58 1754.57 923.854C1753.35 922.792 1751.76 922.259 1750.14 922.373C1748.53 922.486 1747.02 923.236 1745.96 924.458C1744.9 925.681 1744.37 927.274 1744.48 928.89C1744.59 930.505 1745.34 932.008 1746.56 933.07C1747.32 933.726 1748.22 934.186 1749.2 934.411C1750.17 934.635 1751.18 934.617 1752.15 934.357Z" fill="#0E77FF"/>
<path d="M1728.77 961.269C1729.84 960.983 1730.81 960.41 1731.58 959.614C1732.35 958.817 1732.89 957.825 1733.14 956.746C1733.39 955.666 1733.34 954.539 1732.99 953.485C1732.65 952.432 1732.03 951.491 1731.19 950.765C1729.97 949.703 1728.37 949.17 1726.76 949.284C1725.14 949.397 1723.64 950.147 1722.58 951.37C1721.52 952.592 1720.98 954.186 1721.1 955.801C1721.21 957.416 1721.96 958.92 1723.18 959.982C1723.94 960.637 1724.84 961.097 1725.81 961.322C1726.79 961.546 1727.8 961.528 1728.77 961.269Z" fill="#0E77FF"/>
<path d="M1705.38 988.182C1706.45 987.896 1707.43 987.324 1708.2 986.527C1708.97 985.73 1709.5 984.739 1709.75 983.659C1710 982.579 1709.95 981.452 1709.61 980.399C1709.27 979.345 1708.64 978.405 1707.81 977.679C1706.58 976.617 1704.99 976.084 1703.37 976.197C1701.76 976.311 1700.26 977.061 1699.19 978.283C1698.13 979.505 1697.6 981.099 1697.71 982.714C1697.83 984.329 1698.58 985.833 1699.8 986.895C1700.55 987.55 1701.46 988.011 1702.43 988.235C1703.4 988.459 1704.42 988.441 1705.38 988.182Z" fill="#0E77FF"/>
<path d="M1682 1015.1C1683.07 1014.81 1684.04 1014.24 1684.81 1013.44C1685.58 1012.64 1686.12 1011.65 1686.37 1010.57C1686.62 1009.49 1686.57 1008.37 1686.23 1007.31C1685.88 1006.26 1685.26 1005.32 1684.42 1004.59C1683.2 1003.53 1681.61 1003 1679.99 1003.11C1678.38 1003.22 1676.87 1003.97 1675.81 1005.2C1674.75 1006.42 1674.21 1008.01 1674.33 1009.63C1674.44 1011.24 1675.19 1012.75 1676.41 1013.81C1677.17 1014.46 1678.07 1014.92 1679.05 1015.15C1680.02 1015.37 1681.03 1015.36 1682 1015.1Z" fill="#0E77FF"/>
<path d="M1658.61 1042.01C1659.68 1041.72 1660.66 1041.15 1661.43 1040.35C1662.2 1039.56 1662.74 1038.57 1662.98 1037.49C1663.23 1036.41 1663.18 1035.28 1662.84 1034.23C1662.5 1033.17 1661.87 1032.23 1661.04 1031.51C1659.81 1030.44 1658.22 1029.91 1656.61 1030.02C1654.99 1030.14 1653.49 1030.89 1652.43 1032.11C1651.36 1033.33 1650.83 1034.93 1650.94 1036.54C1651.06 1038.16 1651.81 1039.66 1653.03 1040.72C1653.78 1041.38 1654.69 1041.84 1655.66 1042.06C1656.63 1042.29 1657.65 1042.27 1658.61 1042.01Z" fill="#0E77FF"/>
<path d="M1635.23 1068.92C1636.3 1068.64 1637.27 1068.06 1638.04 1067.27C1638.81 1066.47 1639.35 1065.48 1639.6 1064.4C1639.85 1063.32 1639.8 1062.19 1639.46 1061.14C1639.11 1060.08 1638.49 1059.14 1637.66 1058.42C1636.43 1057.35 1634.84 1056.82 1633.22 1056.93C1631.61 1057.05 1630.1 1057.8 1629.04 1059.02C1627.98 1060.24 1627.45 1061.84 1627.56 1063.45C1627.67 1065.07 1628.42 1066.57 1629.64 1067.64C1630.4 1068.29 1631.3 1068.75 1632.28 1068.98C1633.25 1069.2 1634.26 1069.18 1635.23 1068.92Z" fill="#0E77FF"/>
<path d="M1750.75 883.013C1751.08 882.763 1751.38 882.48 1751.65 882.168C1752.71 880.945 1753.24 879.351 1753.13 877.736C1753.02 876.121 1752.27 874.617 1751.04 873.556C1749.82 872.494 1748.23 871.961 1746.61 872.074C1745 872.187 1743.49 872.938 1742.43 874.16C1742.16 874.471 1741.92 874.809 1741.72 875.168C1741.03 876.393 1740.78 877.818 1741.03 879.203C1741.27 880.588 1741.98 881.847 1743.04 882.769C1744.1 883.691 1745.44 884.218 1746.85 884.263C1748.25 884.307 1749.63 883.866 1750.75 883.013Z" fill="#0E77FF"/>
<path d="M1728.26 909.081C1729.05 908.17 1729.56 907.045 1729.71 905.848C1729.86 904.651 1729.66 903.436 1729.12 902.356C1728.58 901.276 1727.73 900.38 1726.68 899.782C1725.64 899.183 1724.43 898.909 1723.23 898.994C1722.03 899.078 1720.88 899.517 1719.92 900.256C1718.97 900.995 1718.25 902.001 1717.87 903.145C1717.49 904.29 1717.45 905.522 1717.77 906.686C1718.09 907.85 1718.75 908.894 1719.66 909.685C1720.88 910.746 1722.47 911.279 1724.09 911.166C1725.7 911.052 1727.2 910.303 1728.26 909.081Z" fill="#0E77FF"/>
<path d="M1704.88 935.993C1705.67 935.082 1706.18 933.957 1706.33 932.76C1706.48 931.563 1706.27 930.348 1705.73 929.268C1705.2 928.188 1704.35 927.292 1703.3 926.694C1702.25 926.095 1701.05 925.821 1699.85 925.905C1698.64 925.99 1697.49 926.429 1696.54 927.168C1695.58 927.907 1694.87 928.913 1694.49 930.057C1694.11 931.201 1694.07 932.434 1694.39 933.598C1694.71 934.762 1695.36 935.806 1696.27 936.597C1697.5 937.657 1699.09 938.189 1700.7 938.076C1702.32 937.962 1703.82 937.213 1704.88 935.993Z" fill="#0E77FF"/>
<path d="M1681.5 962.905C1682.29 961.994 1682.79 960.869 1682.94 959.672C1683.1 958.475 1682.89 957.26 1682.35 956.18C1681.81 955.1 1680.97 954.204 1679.92 953.606C1678.87 953.007 1677.67 952.733 1676.46 952.817C1675.26 952.902 1674.11 953.341 1673.16 954.08C1672.2 954.819 1671.49 955.824 1671.11 956.969C1670.72 958.113 1670.69 959.346 1671.01 960.51C1671.32 961.674 1671.98 962.718 1672.89 963.509C1674.11 964.569 1675.71 965.101 1677.32 964.988C1678.93 964.874 1680.44 964.125 1681.5 962.905Z" fill="#0E77FF"/>
<path d="M1658.11 989.82C1658.9 988.909 1659.41 987.784 1659.56 986.587C1659.71 985.39 1659.5 984.175 1658.97 983.095C1658.43 982.015 1657.58 981.119 1656.53 980.521C1655.48 979.922 1654.28 979.648 1653.08 979.732C1651.88 979.817 1650.72 980.256 1649.77 980.995C1648.82 981.734 1648.1 982.74 1647.72 983.884C1647.34 985.028 1647.3 986.261 1647.62 987.425C1647.94 988.589 1648.59 989.633 1649.5 990.424C1650.73 991.484 1652.32 992.016 1653.93 991.903C1655.55 991.789 1657.05 991.04 1658.11 989.82Z" fill="#0E77FF"/>
<path d="M1634.73 1016.73C1635.52 1015.82 1636.02 1014.7 1636.17 1013.5C1636.33 1012.3 1636.12 1011.09 1635.58 1010.01C1635.04 1008.93 1634.2 1008.03 1633.15 1007.43C1632.1 1006.84 1630.9 1006.56 1629.69 1006.65C1628.49 1006.73 1627.34 1007.17 1626.39 1007.91C1625.43 1008.65 1624.72 1009.65 1624.34 1010.8C1623.95 1011.94 1623.92 1013.17 1624.24 1014.34C1624.55 1015.5 1625.21 1016.55 1626.12 1017.34C1627.34 1018.4 1628.93 1018.93 1630.55 1018.82C1632.16 1018.7 1633.67 1017.96 1634.73 1016.73Z" fill="#0E77FF"/>
<path d="M1611.34 1043.65C1612.13 1042.74 1612.64 1041.61 1612.79 1040.41C1612.94 1039.22 1612.74 1038 1612.2 1036.92C1611.66 1035.84 1610.81 1034.95 1609.76 1034.35C1608.72 1033.75 1607.51 1033.47 1606.31 1033.56C1605.11 1033.64 1603.96 1034.08 1603 1034.82C1602.05 1035.56 1601.33 1036.57 1600.95 1037.71C1600.57 1038.86 1600.53 1040.09 1600.85 1041.25C1601.17 1042.42 1601.82 1043.46 1602.74 1044.25C1603.96 1045.31 1605.55 1045.84 1607.16 1045.73C1608.78 1045.62 1610.28 1044.87 1611.34 1043.65Z" fill="#0E77FF"/>
<path d="M1587.96 1070.56C1588.75 1069.65 1589.26 1068.52 1589.41 1067.32C1589.56 1066.13 1589.35 1064.91 1588.81 1063.83C1588.28 1062.75 1587.43 1061.86 1586.38 1061.26C1585.33 1060.66 1584.13 1060.39 1582.93 1060.47C1581.72 1060.55 1580.57 1060.99 1579.62 1061.73C1578.67 1062.47 1577.95 1063.48 1577.57 1064.62C1577.19 1065.77 1577.15 1067 1577.47 1068.16C1577.79 1069.33 1578.44 1070.37 1579.35 1071.16C1580.58 1072.22 1582.17 1072.76 1583.78 1072.64C1585.4 1072.53 1586.9 1071.78 1587.96 1070.56Z" fill="#0E77FF"/>
<path d="M1723.83 859.629C1724.16 859.379 1724.46 859.095 1724.73 858.783C1725.8 857.561 1726.33 855.967 1726.22 854.352C1726.1 852.737 1725.35 851.233 1724.13 850.171C1722.91 849.109 1721.31 848.576 1719.7 848.69C1718.08 848.803 1716.58 849.553 1715.52 850.775C1714.52 851.915 1713.98 853.387 1714 854.904C1714.03 856.421 1714.61 857.875 1715.65 858.981C1716.69 860.087 1718.11 860.766 1719.62 860.886C1721.13 861.006 1722.63 860.558 1723.83 859.629Z" fill="#0E77FF"/>
<path d="M1701.35 885.697C1702.14 884.786 1702.65 883.661 1702.8 882.464C1702.95 881.267 1702.74 880.051 1702.2 878.972C1701.67 877.892 1700.82 876.996 1699.77 876.397C1698.72 875.799 1697.52 875.525 1696.32 875.609C1695.11 875.693 1693.96 876.133 1693.01 876.872C1692.05 877.611 1691.34 878.616 1690.96 879.761C1690.58 880.905 1690.54 882.137 1690.86 883.301C1691.18 884.465 1691.83 885.509 1692.74 886.301C1693.96 887.362 1695.56 887.894 1697.17 887.781C1698.79 887.668 1700.29 886.918 1701.35 885.697Z" fill="#0E77FF"/>
<path d="M1677.97 912.609C1678.76 911.698 1679.26 910.573 1679.41 909.376C1679.57 908.179 1679.36 906.963 1678.82 905.883C1678.28 904.804 1677.44 903.908 1676.39 903.309C1675.34 902.711 1674.14 902.436 1672.93 902.521C1671.73 902.605 1670.58 903.045 1669.63 903.784C1668.67 904.523 1667.96 905.528 1667.58 906.673C1667.19 907.817 1667.16 909.049 1667.48 910.213C1667.79 911.377 1668.45 912.421 1669.36 913.213C1670.58 914.273 1672.17 914.804 1673.79 914.691C1675.4 914.578 1676.91 913.829 1677.97 912.609Z" fill="#0E77FF"/>
<path d="M1654.58 939.521C1655.38 938.61 1655.88 937.485 1656.03 936.288C1656.18 935.091 1655.98 933.875 1655.44 932.796C1654.9 931.716 1654.05 930.82 1653 930.222C1651.96 929.623 1650.76 929.349 1649.55 929.433C1648.35 929.517 1647.2 929.957 1646.24 930.696C1645.29 931.435 1644.57 932.44 1644.19 933.585C1643.81 934.729 1643.77 935.961 1644.09 937.125C1644.41 938.289 1645.07 939.333 1645.98 940.125C1647.2 941.185 1648.79 941.716 1650.41 941.603C1652.02 941.49 1653.52 940.741 1654.58 939.521Z" fill="#0E77FF"/>
<path d="M1631.2 966.436C1631.99 965.525 1632.49 964.4 1632.65 963.203C1632.8 962.006 1632.59 960.79 1632.05 959.711C1631.51 958.631 1630.67 957.735 1629.62 957.136C1628.57 956.538 1627.37 956.263 1626.17 956.348C1624.96 956.432 1623.81 956.872 1622.86 957.611C1621.9 958.35 1621.19 959.355 1620.81 960.5C1620.42 961.644 1620.39 962.876 1620.71 964.04C1621.02 965.204 1621.68 966.248 1622.59 967.04C1623.81 968.1 1625.41 968.631 1627.02 968.518C1628.63 968.405 1630.14 967.656 1631.2 966.436Z" fill="#0E77FF"/>
<path d="M1607.81 993.349C1608.61 992.438 1609.11 991.313 1609.26 990.116C1609.41 988.919 1609.21 987.704 1608.67 986.624C1608.13 985.544 1607.28 984.648 1606.23 984.05C1605.19 983.451 1603.99 983.177 1602.78 983.261C1601.58 983.346 1600.43 983.785 1599.47 984.524C1598.52 985.263 1597.8 986.269 1597.42 987.413C1597.04 988.557 1597 989.79 1597.32 990.954C1597.64 992.118 1598.3 993.162 1599.21 993.953C1600.43 995.014 1602.02 995.547 1603.64 995.434C1605.25 995.32 1606.75 994.571 1607.81 993.349Z" fill="#0E77FF"/>
<path d="M1584.43 1020.26C1585.22 1019.35 1585.72 1018.23 1585.88 1017.03C1586.03 1015.83 1585.82 1014.62 1585.28 1013.54C1584.74 1012.46 1583.9 1011.56 1582.85 1010.96C1581.8 1010.36 1580.6 1010.09 1579.4 1010.17C1578.19 1010.26 1577.04 1010.7 1576.09 1011.44C1575.13 1012.18 1574.42 1013.18 1574.04 1014.33C1573.65 1015.47 1573.62 1016.7 1573.94 1017.87C1574.26 1019.03 1574.91 1020.08 1575.82 1020.87C1577.04 1021.93 1578.64 1022.46 1580.25 1022.34C1581.86 1022.23 1583.37 1021.48 1584.43 1020.26Z" fill="#0E77FF"/>
<path d="M1561.05 1047.17C1561.84 1046.26 1562.34 1045.14 1562.49 1043.94C1562.65 1042.74 1562.44 1041.53 1561.9 1040.45C1561.36 1039.37 1560.52 1038.47 1559.47 1037.87C1558.42 1037.28 1557.22 1037 1556.01 1037.09C1554.81 1037.17 1553.66 1037.61 1552.71 1038.35C1551.75 1039.09 1551.04 1040.09 1550.66 1041.24C1550.27 1042.38 1550.24 1043.61 1550.56 1044.78C1550.87 1045.94 1551.53 1046.99 1552.44 1047.78C1553.66 1048.84 1555.25 1049.37 1556.87 1049.26C1558.48 1049.14 1559.99 1048.39 1561.05 1047.17Z" fill="#0E77FF"/>
<path d="M1696.92 836.247C1697.25 835.994 1697.55 835.71 1697.82 835.399C1698.88 834.177 1699.42 832.583 1699.3 830.968C1699.19 829.353 1698.44 827.849 1697.22 826.787C1695.99 825.725 1694.4 825.192 1692.79 825.305C1691.17 825.419 1689.67 826.169 1688.6 827.391C1688.33 827.702 1688.09 828.041 1687.89 828.401C1687.2 829.626 1686.96 831.051 1687.2 832.436C1687.44 833.821 1688.15 835.08 1689.21 836.002C1690.27 836.924 1691.62 837.452 1693.02 837.496C1694.43 837.541 1695.81 837.099 1696.92 836.247Z" fill="#0E77FF"/>
<path d="M1674.44 862.312C1675.23 861.401 1675.73 860.276 1675.88 859.079C1676.04 857.882 1675.83 856.667 1675.29 855.587C1674.75 854.507 1673.91 853.612 1672.86 853.013C1671.81 852.414 1670.61 852.14 1669.4 852.225C1668.2 852.309 1667.05 852.749 1666.09 853.488C1665.14 854.226 1664.43 855.232 1664.04 856.376C1663.66 857.521 1663.63 858.753 1663.95 859.917C1664.26 861.081 1664.92 862.125 1665.83 862.916C1666.43 863.442 1667.14 863.843 1667.9 864.097C1668.66 864.351 1669.46 864.453 1670.26 864.397C1671.06 864.341 1671.84 864.128 1672.55 863.77C1673.27 863.412 1673.91 862.917 1674.44 862.312Z" fill="#0E77FF"/>
<path d="M1651.05 889.224C1651.85 888.313 1652.35 887.188 1652.5 885.991C1652.65 884.794 1652.45 883.579 1651.91 882.499C1651.37 881.419 1650.52 880.524 1649.47 879.925C1648.43 879.326 1647.22 879.052 1646.02 879.137C1644.82 879.221 1643.67 879.66 1642.71 880.399C1641.76 881.138 1641.04 882.144 1640.66 883.288C1640.28 884.433 1640.24 885.665 1640.56 886.829C1640.88 887.993 1641.54 889.037 1642.45 889.828C1643.05 890.354 1643.75 890.755 1644.51 891.009C1645.27 891.263 1646.08 891.365 1646.88 891.309C1647.67 891.253 1648.45 891.04 1649.17 890.682C1649.89 890.324 1650.53 889.829 1651.05 889.224Z" fill="#0E77FF"/>
<path d="M1627.67 916.136C1628.46 915.225 1628.97 914.1 1629.12 912.903C1629.27 911.706 1629.06 910.491 1628.52 909.411C1627.99 908.331 1627.14 907.436 1626.09 906.837C1625.04 906.238 1623.84 905.964 1622.64 906.049C1621.43 906.133 1620.28 906.572 1619.33 907.311C1618.37 908.05 1617.66 909.056 1617.28 910.2C1616.9 911.345 1616.86 912.577 1617.18 913.741C1617.5 914.905 1618.15 915.949 1619.06 916.74C1619.67 917.266 1620.37 917.667 1621.13 917.921C1621.89 918.175 1622.69 918.277 1623.49 918.221C1624.29 918.165 1625.07 917.952 1625.79 917.594C1626.51 917.236 1627.15 916.741 1627.67 916.136Z" fill="#0E77FF"/>
<path d="M1604.28 943.051C1605.08 942.14 1605.58 941.015 1605.73 939.818C1605.88 938.621 1605.68 937.406 1605.14 936.326C1604.6 935.246 1603.75 934.35 1602.71 933.752C1601.66 933.153 1600.46 932.879 1599.25 932.963C1598.05 933.048 1596.9 933.487 1595.94 934.226C1594.99 934.965 1594.28 935.971 1593.89 937.115C1593.51 938.259 1593.48 939.492 1593.79 940.656C1594.11 941.82 1594.77 942.864 1595.68 943.655C1596.28 944.181 1596.98 944.582 1597.74 944.836C1598.5 945.09 1599.31 945.192 1600.11 945.136C1600.91 945.08 1601.69 944.867 1602.4 944.509C1603.12 944.151 1603.76 943.656 1604.28 943.051Z" fill="#0E77FF"/>
<path d="M1580.9 969.965C1581.69 969.054 1582.2 967.929 1582.35 966.732C1582.5 965.535 1582.29 964.319 1581.75 963.24C1581.22 962.16 1580.37 961.264 1579.32 960.665C1578.27 960.067 1577.07 959.793 1575.87 959.877C1574.66 959.961 1573.51 960.401 1572.56 961.14C1571.6 961.879 1570.89 962.884 1570.51 964.029C1570.13 965.173 1570.09 966.405 1570.41 967.569C1570.73 968.733 1571.38 969.777 1572.29 970.569C1572.9 971.094 1573.6 971.495 1574.36 971.749C1575.12 972.003 1575.92 972.105 1576.72 972.049C1577.52 971.993 1578.3 971.78 1579.02 971.423C1579.74 971.065 1580.37 970.57 1580.9 969.965Z" fill="#0E77FF"/>
<path d="M1557.52 996.878C1558.31 995.967 1558.81 994.842 1558.96 993.645C1559.11 992.448 1558.91 991.233 1558.37 990.153C1557.83 989.073 1556.98 988.177 1555.94 987.579C1554.89 986.98 1553.69 986.706 1552.48 986.79C1551.28 986.875 1550.13 987.314 1549.17 988.053C1548.22 988.792 1547.51 989.798 1547.12 990.942C1546.74 992.086 1546.71 993.319 1547.02 994.483C1547.34 995.647 1548 996.691 1548.91 997.482C1549.51 998.008 1550.22 998.409 1550.98 998.663C1551.74 998.917 1552.54 999.019 1553.34 998.963C1554.14 998.907 1554.92 998.694 1555.63 998.336C1556.35 997.978 1556.99 997.483 1557.52 996.878Z" fill="#0E77FF"/>
<path d="M1534.13 1023.79C1534.93 1022.88 1535.43 1021.75 1535.58 1020.56C1535.73 1019.36 1535.53 1018.14 1534.99 1017.06C1534.45 1015.98 1533.6 1015.09 1532.55 1014.49C1531.51 1013.89 1530.31 1013.62 1529.1 1013.7C1527.9 1013.79 1526.75 1014.22 1525.79 1014.96C1524.84 1015.7 1524.13 1016.71 1523.74 1017.85C1523.36 1019 1523.33 1020.23 1523.64 1021.39C1523.96 1022.56 1524.62 1023.6 1525.53 1024.39C1526.13 1024.92 1526.83 1025.32 1527.59 1025.57C1528.35 1025.83 1529.16 1025.93 1529.96 1025.87C1530.75 1025.82 1531.54 1025.6 1532.25 1025.25C1532.97 1024.89 1533.61 1024.39 1534.13 1023.79Z" fill="#0E77FF"/>
<path d="M1670.01 812.862C1670.34 812.612 1670.64 812.328 1670.91 812.016C1671.97 810.794 1672.51 809.199 1672.39 807.584C1672.28 805.968 1671.53 804.464 1670.31 803.401C1669.08 802.339 1667.49 801.806 1665.87 801.919C1664.26 802.033 1662.75 802.783 1661.69 804.006C1661.42 804.317 1661.18 804.656 1660.98 805.016C1660.29 806.241 1660.05 807.666 1660.29 809.051C1660.53 810.436 1661.24 811.695 1662.3 812.617C1663.36 813.539 1664.71 814.066 1666.11 814.111C1667.51 814.156 1668.89 813.715 1670.01 812.862Z" fill="#0E77FF"/>
<path d="M1647.53 838.93C1648.32 838.019 1648.82 836.893 1648.98 835.695C1649.13 834.497 1648.92 833.28 1648.39 832.199C1647.85 831.118 1647 830.221 1645.95 829.621C1644.9 829.021 1643.7 828.746 1642.5 828.83C1641.29 828.914 1640.14 829.353 1639.18 830.092C1638.23 830.831 1637.51 831.837 1637.13 832.982C1636.75 834.128 1636.71 835.361 1637.03 836.526C1637.35 837.692 1638 838.737 1638.91 839.529C1639.52 840.056 1640.22 840.458 1640.98 840.713C1641.74 840.968 1642.54 841.07 1643.34 841.015C1644.14 840.959 1644.92 840.746 1645.64 840.388C1646.36 840.031 1647 839.535 1647.53 838.93Z" fill="#0E77FF"/>
<path d="M1624.14 865.842C1624.94 864.931 1625.44 863.805 1625.59 862.607C1625.75 861.409 1625.54 860.192 1625 859.111C1624.46 858.03 1623.62 857.133 1622.57 856.533C1621.52 855.933 1620.32 855.658 1619.11 855.742C1617.91 855.826 1616.75 856.265 1615.8 857.004C1614.84 857.743 1614.13 858.749 1613.75 859.894C1613.36 861.04 1613.33 862.273 1613.64 863.438C1613.96 864.604 1614.62 865.649 1615.53 866.441C1616.75 867.503 1618.35 868.037 1619.96 867.924C1621.58 867.812 1623.08 867.063 1624.14 865.842Z" fill="#0E77FF"/>
<path d="M1600.76 892.754C1601.55 891.843 1602.06 890.717 1602.21 889.519C1602.36 888.321 1602.16 887.104 1601.62 886.023C1601.08 884.942 1600.23 884.045 1599.19 883.445C1598.14 882.845 1596.93 882.57 1595.73 882.654C1594.52 882.738 1593.37 883.177 1592.42 883.916C1591.46 884.655 1590.75 885.661 1590.36 886.806C1589.98 887.952 1589.94 889.185 1590.26 890.35C1590.58 891.516 1591.24 892.561 1592.15 893.353C1593.37 894.415 1594.96 894.948 1596.58 894.836C1598.19 894.724 1599.7 893.975 1600.76 892.754Z" fill="#0E77FF"/>
<path d="M1577.37 919.669C1578.17 918.758 1578.67 917.632 1578.82 916.434C1578.98 915.236 1578.77 914.019 1578.23 912.938C1577.69 911.857 1576.85 910.96 1575.8 910.36C1574.75 909.76 1573.55 909.485 1572.34 909.569C1571.14 909.653 1569.99 910.092 1569.03 910.831C1568.08 911.57 1567.36 912.576 1566.98 913.721C1566.59 914.867 1566.56 916.1 1566.88 917.265C1567.19 918.431 1567.85 919.476 1568.76 920.268C1569.98 921.33 1571.58 921.863 1573.19 921.751C1574.81 921.639 1576.31 920.89 1577.37 919.669Z" fill="#0E77FF"/>
<path d="M1553.99 946.582C1554.78 945.671 1555.29 944.545 1555.44 943.347C1555.59 942.149 1555.39 940.933 1554.85 939.852C1554.31 938.77 1553.46 937.873 1552.42 937.273C1551.37 936.674 1550.16 936.398 1548.96 936.482C1547.75 936.566 1546.6 937.005 1545.65 937.744C1544.69 938.484 1543.98 939.489 1543.59 940.635C1543.21 941.78 1543.17 943.013 1543.49 944.179C1543.81 945.344 1544.47 946.389 1545.38 947.181C1545.98 947.708 1546.68 948.11 1547.44 948.365C1548.2 948.62 1549.01 948.723 1549.81 948.667C1550.61 948.611 1551.39 948.399 1552.11 948.041C1552.82 947.683 1553.46 947.187 1553.99 946.582Z" fill="#0E77FF"/>
<path d="M1530.6 973.496C1531.4 972.585 1531.9 971.459 1532.06 970.261C1532.21 969.063 1532 967.846 1531.46 966.765C1530.93 965.684 1530.08 964.787 1529.03 964.187C1527.98 963.587 1526.78 963.312 1525.57 963.396C1524.37 963.48 1523.22 963.919 1522.26 964.658C1521.31 965.397 1520.59 966.403 1520.21 967.548C1519.83 968.694 1519.79 969.927 1520.11 971.092C1520.42 972.258 1521.08 973.303 1521.99 974.095C1523.21 975.157 1524.81 975.69 1526.42 975.578C1528.04 975.465 1529.54 974.716 1530.6 973.496Z" fill="#0E77FF"/>
<path d="M1507.22 1000.41C1508.02 999.495 1508.52 998.369 1508.67 997.171C1508.83 995.973 1508.62 994.757 1508.08 993.675C1507.54 992.594 1506.7 991.697 1505.65 991.097C1504.6 990.498 1503.4 990.222 1502.19 990.306C1500.99 990.39 1499.84 990.829 1498.88 991.568C1497.92 992.308 1497.21 993.313 1496.83 994.459C1496.44 995.604 1496.41 996.837 1496.73 998.003C1497.04 999.168 1497.7 1000.21 1498.61 1001.01C1499.83 1002.07 1501.43 1002.6 1503.04 1002.49C1504.66 1002.38 1506.16 1001.63 1507.22 1000.41Z" fill="#0E77FF"/>
<path d="M1885.31 999.934C1885.64 999.683 1885.94 999.4 1886.21 999.088C1887.28 997.866 1887.81 996.272 1887.69 994.657C1887.58 993.042 1886.83 991.538 1885.61 990.476C1884.39 989.414 1882.79 988.881 1881.18 988.994C1879.56 989.108 1878.06 989.858 1877 991.08C1876.73 991.392 1876.49 991.729 1876.28 992.088C1875.59 993.313 1875.35 994.738 1875.59 996.123C1875.83 997.508 1876.54 998.767 1877.6 999.689C1878.66 1000.61 1880.01 1001.14 1881.41 1001.18C1882.82 1001.23 1884.2 1000.79 1885.31 999.934Z" fill="#0E77FF"/>
<path d="M1862.83 1026C1863.62 1025.09 1864.12 1023.97 1864.28 1022.77C1864.43 1021.57 1864.22 1020.36 1863.68 1019.28C1863.14 1018.2 1862.3 1017.3 1861.25 1016.7C1860.2 1016.1 1859 1015.83 1857.8 1015.91C1856.59 1016 1855.44 1016.44 1854.49 1017.18C1853.53 1017.92 1852.82 1018.92 1852.44 1020.07C1852.05 1021.21 1852.02 1022.44 1852.34 1023.61C1852.65 1024.77 1853.31 1025.81 1854.22 1026.61C1855.44 1027.67 1857.04 1028.2 1858.65 1028.09C1860.26 1027.97 1861.77 1027.22 1862.83 1026Z" fill="#0E77FF"/>
<path d="M1839.45 1052.91C1840.24 1052 1840.74 1050.88 1840.89 1049.68C1841.04 1048.48 1840.84 1047.27 1840.3 1046.19C1839.76 1045.11 1838.91 1044.21 1837.87 1043.61C1836.82 1043.02 1835.62 1042.74 1834.41 1042.83C1833.21 1042.91 1832.06 1043.35 1831.1 1044.09C1830.15 1044.83 1829.44 1045.83 1829.05 1046.98C1828.67 1048.12 1828.64 1049.35 1828.95 1050.52C1829.27 1051.68 1829.93 1052.73 1830.84 1053.52C1832.06 1054.58 1833.65 1055.11 1835.27 1055C1836.88 1054.88 1838.38 1054.13 1839.45 1052.91Z" fill="#0E77FF"/>
<path d="M1816.06 1079.83C1816.85 1078.91 1817.36 1077.79 1817.51 1076.59C1817.66 1075.4 1817.46 1074.18 1816.92 1073.1C1816.38 1072.02 1815.53 1071.12 1814.48 1070.53C1813.44 1069.93 1812.23 1069.65 1811.03 1069.74C1809.83 1069.82 1808.67 1070.26 1807.72 1071C1806.77 1071.74 1806.05 1072.74 1805.67 1073.89C1805.29 1075.03 1805.25 1076.27 1805.57 1077.43C1805.89 1078.59 1806.54 1079.64 1807.46 1080.43C1808.68 1081.49 1810.27 1082.02 1811.88 1081.91C1813.5 1081.79 1815 1081.05 1816.06 1079.83Z" fill="#0E77FF"/>
<path d="M1858.4 976.549C1858.73 976.299 1859.03 976.015 1859.3 975.703C1860.36 974.481 1860.89 972.887 1860.78 971.272C1860.67 969.657 1859.92 968.153 1858.7 967.091C1857.47 966.029 1855.88 965.496 1854.26 965.61C1852.65 965.723 1851.15 966.473 1850.08 967.696C1849.81 968.007 1849.57 968.345 1849.37 968.704C1848.68 969.929 1848.43 971.354 1848.67 972.74C1848.91 974.125 1849.62 975.386 1850.69 976.308C1851.75 977.23 1853.09 977.758 1854.5 977.802C1855.9 977.846 1857.28 977.403 1858.4 976.549Z" fill="#0E77FF"/>
<path d="M1835.92 1002.62C1836.71 1001.71 1837.21 1000.58 1837.36 999.384C1837.51 998.187 1837.31 996.971 1836.77 995.892C1836.23 994.812 1835.38 993.916 1834.34 993.318C1833.29 992.719 1832.09 992.445 1830.88 992.529C1829.68 992.614 1828.53 993.053 1827.57 993.792C1826.62 994.531 1825.91 995.536 1825.52 996.681C1825.14 997.825 1825.11 999.057 1825.42 1000.22C1825.74 1001.39 1826.4 1002.43 1827.31 1003.22C1827.91 1003.75 1828.62 1004.15 1829.38 1004.4C1830.14 1004.66 1830.94 1004.76 1831.74 1004.7C1832.54 1004.65 1833.32 1004.43 1834.03 1004.07C1834.75 1003.72 1835.39 1003.22 1835.92 1002.62Z" fill="#0E77FF"/>
<path d="M1812.53 1029.53C1813.32 1028.62 1813.83 1027.49 1813.98 1026.3C1814.13 1025.1 1813.92 1023.88 1813.39 1022.8C1812.85 1021.72 1812 1020.83 1810.95 1020.23C1809.91 1019.63 1808.7 1019.36 1807.5 1019.44C1806.3 1019.53 1805.14 1019.97 1804.19 1020.7C1803.24 1021.44 1802.52 1022.45 1802.14 1023.59C1801.76 1024.74 1801.72 1025.97 1802.04 1027.13C1802.36 1028.3 1803.01 1029.34 1803.92 1030.13C1805.15 1031.19 1806.74 1031.72 1808.35 1031.61C1809.97 1031.5 1811.47 1030.75 1812.53 1029.53Z" fill="#0E77FF"/>
<path d="M1789.15 1056.44C1789.94 1055.53 1790.44 1054.4 1790.6 1053.21C1790.75 1052.01 1790.54 1050.8 1790 1049.72C1789.46 1048.64 1788.62 1047.74 1787.57 1047.14C1786.52 1046.54 1785.32 1046.27 1784.12 1046.35C1782.91 1046.44 1781.76 1046.88 1780.81 1047.62C1779.85 1048.35 1779.14 1049.36 1778.76 1050.5C1778.37 1051.65 1778.34 1052.88 1778.66 1054.05C1778.98 1055.21 1779.63 1056.25 1780.54 1057.04C1781.76 1058.1 1783.36 1058.64 1784.97 1058.52C1786.58 1058.41 1788.09 1057.66 1789.15 1056.44Z" fill="#0E77FF"/>
<path d="M1765.76 1083.36C1766.55 1082.44 1767.06 1081.32 1767.21 1080.12C1767.36 1078.93 1767.16 1077.71 1766.62 1076.63C1766.08 1075.55 1765.23 1074.65 1764.18 1074.06C1763.14 1073.46 1761.93 1073.18 1760.73 1073.27C1759.53 1073.35 1758.38 1073.79 1757.42 1074.53C1756.47 1075.27 1755.75 1076.28 1755.37 1077.42C1754.99 1078.56 1754.95 1079.8 1755.27 1080.96C1755.59 1082.12 1756.25 1083.17 1757.16 1083.96C1758.38 1085.02 1759.97 1085.55 1761.58 1085.44C1763.2 1085.32 1764.7 1084.58 1765.76 1083.36Z" fill="#0E77FF"/>
<path d="M1831.49 953.165C1831.81 952.915 1832.12 952.631 1832.39 952.319C1833.45 951.097 1833.98 949.503 1833.87 947.888C1833.75 946.273 1833 944.769 1831.78 943.707C1830.56 942.645 1828.97 942.112 1827.35 942.225C1825.74 942.339 1824.23 943.089 1823.17 944.311C1822.9 944.623 1822.66 944.961 1822.46 945.321C1821.76 946.546 1821.52 947.973 1821.75 949.361C1821.99 950.748 1822.7 952.01 1823.76 952.934C1824.83 953.857 1826.18 954.385 1827.58 954.427C1828.99 954.469 1830.37 954.023 1831.49 953.165Z" fill="#0E77FF"/>
<path d="M1809 979.232C1809.79 978.322 1810.3 977.196 1810.45 975.999C1810.6 974.802 1810.39 973.587 1809.86 972.507C1809.32 971.428 1808.47 970.532 1807.42 969.933C1806.37 969.335 1805.17 969.06 1803.97 969.145C1802.77 969.229 1801.61 969.669 1800.66 970.408C1799.71 971.147 1798.99 972.152 1798.61 973.296C1798.23 974.441 1798.19 975.673 1798.51 976.837C1798.83 978.001 1799.48 979.045 1800.39 979.836C1801.62 980.898 1803.21 981.43 1804.82 981.317C1806.44 981.204 1807.94 980.454 1809 979.232Z" fill="#0E77FF"/>
<path d="M1785.62 1006.14C1786.41 1005.23 1786.91 1004.11 1787.07 1002.91C1787.22 1001.71 1787.01 1000.5 1786.47 999.419C1785.93 998.339 1785.09 997.444 1784.04 996.845C1782.99 996.247 1781.79 995.972 1780.59 996.057C1779.38 996.141 1778.23 996.581 1777.28 997.32C1776.32 998.059 1775.61 999.064 1775.23 1000.21C1774.84 1001.35 1774.81 1002.58 1775.13 1003.75C1775.45 1004.91 1776.1 1005.96 1777.01 1006.75C1778.23 1007.81 1779.83 1008.34 1781.44 1008.23C1783.05 1008.11 1784.56 1007.36 1785.62 1006.14Z" fill="#0E77FF"/>
<path d="M1762.24 1033.06C1763.03 1032.15 1763.53 1031.02 1763.68 1029.82C1763.83 1028.63 1763.63 1027.41 1763.09 1026.33C1762.55 1025.25 1761.7 1024.36 1760.66 1023.76C1759.61 1023.16 1758.41 1022.88 1757.2 1022.97C1756 1023.05 1754.85 1023.49 1753.89 1024.23C1752.94 1024.97 1752.23 1025.98 1751.84 1027.12C1751.46 1028.26 1751.43 1029.5 1751.74 1030.66C1752.06 1031.83 1752.72 1032.87 1753.63 1033.66C1754.85 1034.72 1756.44 1035.25 1758.06 1035.14C1759.67 1035.03 1761.17 1034.28 1762.24 1033.06Z" fill="#0E77FF"/>
<path d="M1738.85 1059.97C1739.64 1059.06 1740.14 1057.94 1740.3 1056.74C1740.45 1055.54 1740.24 1054.33 1739.7 1053.25C1739.17 1052.17 1738.32 1051.27 1737.27 1050.67C1736.22 1050.07 1735.02 1049.8 1733.82 1049.88C1732.61 1049.97 1731.46 1050.41 1730.51 1051.15C1729.55 1051.89 1728.84 1052.89 1728.46 1054.04C1728.08 1055.18 1728.04 1056.41 1728.36 1057.58C1728.68 1058.74 1729.33 1059.78 1730.24 1060.58C1731.46 1061.64 1733.06 1062.17 1734.67 1062.05C1736.29 1061.94 1737.79 1061.19 1738.85 1059.97Z" fill="#0E77FF"/>
<path d="M1715.47 1086.88C1716.26 1085.97 1716.76 1084.85 1716.91 1083.65C1717.06 1082.45 1716.86 1081.24 1716.32 1080.16C1715.78 1079.08 1714.93 1078.18 1713.89 1077.59C1712.84 1076.99 1711.64 1076.71 1710.43 1076.8C1709.23 1076.88 1708.08 1077.32 1707.12 1078.06C1706.17 1078.8 1705.46 1079.8 1705.07 1080.95C1704.69 1082.09 1704.66 1083.33 1704.97 1084.49C1705.29 1085.65 1705.95 1086.7 1706.86 1087.49C1708.08 1088.55 1709.67 1089.08 1711.29 1088.97C1712.9 1088.86 1714.4 1088.11 1715.47 1086.88Z" fill="#0E77FF"/>
<path d="M1804.58 929.785C1804.9 929.533 1805.2 929.249 1805.48 928.937C1806.54 927.715 1807.07 926.121 1806.96 924.506C1806.84 922.891 1806.09 921.387 1804.87 920.325C1803.65 919.263 1802.06 918.73 1800.44 918.844C1798.83 918.957 1797.32 919.707 1796.26 920.929C1795.99 921.241 1795.75 921.579 1795.55 921.939C1794.86 923.165 1794.61 924.59 1794.85 925.974C1795.1 927.359 1795.81 928.619 1796.87 929.54C1797.93 930.462 1799.27 930.99 1800.68 931.034C1802.08 931.079 1803.46 930.638 1804.58 929.785Z" fill="#0E77FF"/>
<path d="M1782.09 955.848C1782.88 954.937 1783.38 953.812 1783.54 952.615C1783.69 951.418 1783.48 950.203 1782.94 949.123C1782.4 948.043 1781.56 947.147 1780.51 946.549C1779.46 945.95 1778.26 945.676 1777.06 945.76C1775.85 945.845 1774.7 946.284 1773.75 947.023C1772.79 947.762 1772.08 948.768 1771.7 949.912C1771.31 951.056 1771.28 952.289 1771.6 953.453C1771.91 954.617 1772.57 955.661 1773.48 956.452C1774.7 957.513 1776.3 958.046 1777.91 957.933C1779.52 957.819 1781.03 957.07 1782.09 955.848Z" fill="#0E77FF"/>
<path d="M1758.71 982.76C1759.5 981.849 1760 980.724 1760.15 979.527C1760.3 978.33 1760.1 977.115 1759.56 976.035C1759.02 974.955 1758.17 974.059 1757.13 973.461C1756.08 972.862 1754.88 972.588 1753.67 972.672C1752.47 972.757 1751.32 973.196 1750.36 973.935C1749.41 974.674 1748.7 975.679 1748.31 976.824C1747.93 977.968 1747.9 979.2 1748.21 980.365C1748.53 981.529 1749.19 982.573 1750.1 983.364C1751.32 984.425 1752.91 984.958 1754.53 984.845C1756.14 984.731 1757.64 983.981 1758.71 982.76Z" fill="#0E77FF"/>
<path d="M1735.32 1009.67C1736.11 1008.76 1736.62 1007.64 1736.77 1006.44C1736.92 1005.24 1736.71 1004.03 1736.18 1002.95C1735.64 1001.87 1734.79 1000.97 1733.74 1000.37C1732.7 999.774 1731.49 999.5 1730.29 999.584C1729.09 999.669 1727.93 1000.11 1726.98 1000.85C1726.03 1001.59 1725.31 1002.59 1724.93 1003.74C1724.55 1004.88 1724.51 1006.11 1724.83 1007.28C1725.15 1008.44 1725.8 1009.48 1726.72 1010.28C1727.94 1011.34 1729.53 1011.87 1731.14 1011.76C1732.76 1011.64 1734.26 1010.89 1735.32 1009.67Z" fill="#0E77FF"/>
<path d="M1711.94 1036.59C1712.73 1035.68 1713.23 1034.55 1713.38 1033.35C1713.54 1032.16 1713.33 1030.94 1712.79 1029.86C1712.25 1028.78 1711.4 1027.89 1710.36 1027.29C1709.31 1026.69 1708.11 1026.41 1706.9 1026.5C1705.7 1026.58 1704.55 1027.02 1703.59 1027.76C1702.64 1028.5 1701.93 1029.51 1701.54 1030.65C1701.16 1031.8 1701.13 1033.03 1701.45 1034.19C1701.76 1035.36 1702.42 1036.4 1703.33 1037.19C1704.55 1038.25 1706.14 1038.78 1707.76 1038.67C1709.37 1038.56 1710.88 1037.81 1711.94 1036.59Z" fill="#0E77FF"/>
<path d="M1688.55 1063.5C1689.34 1062.59 1689.85 1061.46 1690 1060.27C1690.15 1059.07 1689.94 1057.86 1689.41 1056.78C1688.87 1055.7 1688.02 1054.8 1686.97 1054.2C1685.92 1053.6 1684.72 1053.33 1683.52 1053.41C1682.32 1053.5 1681.16 1053.94 1680.21 1054.68C1679.26 1055.41 1678.54 1056.42 1678.16 1057.56C1677.78 1058.71 1677.74 1059.94 1678.06 1061.11C1678.38 1062.27 1679.03 1063.31 1679.94 1064.1C1681.17 1065.17 1682.76 1065.7 1684.37 1065.59C1685.99 1065.47 1687.49 1064.72 1688.55 1063.5Z" fill="#0E77FF"/>
<path d="M1665.17 1090.41C1665.96 1089.5 1666.46 1088.38 1666.61 1087.18C1666.77 1085.98 1666.56 1084.77 1666.02 1083.69C1665.48 1082.61 1664.64 1081.71 1663.59 1081.11C1662.54 1080.52 1661.34 1080.24 1660.14 1080.33C1658.93 1080.41 1657.78 1080.85 1656.83 1081.59C1655.87 1082.33 1655.16 1083.33 1654.78 1084.48C1654.39 1085.62 1654.36 1086.85 1654.68 1088.02C1654.99 1089.18 1655.65 1090.23 1656.56 1091.02C1657.78 1092.08 1659.37 1092.61 1660.99 1092.5C1662.6 1092.39 1664.11 1091.64 1665.17 1090.41Z" fill="#0E77FF"/>
<g clip-path="url(#clip2_184_47)">
<path d="M1667.11 27.3166L1924.04 9.27582L1811.2 240.798L1667.11 27.3166Z" fill="#0E77FF"/>
<path d="M1625.68 150.504L1756.2 285.533L1574.01 331.052L1625.68 150.504Z" stroke="#0E77FF"/>
<path d="M1524.36 7.68995L1449.19 66.4734L1435.87 -28.0129L1524.36 7.68995Z" stroke="#0E77FF"/>
</g>
</g>
<defs>
<filter id="filter0_d_184_47" x="-644.051" y="124.992" width="1349.43" height="1387" filterUnits="userSpaceOnUse" color-interpolation-filters="sRGB">
<feFlood flood-opacity="0" result="BackgroundImageFix"/>
<feColorMatrix in="SourceAlpha" type="matrix" values="0 0 0 0 0 0 0 0 0 0 0 0 0 0 0 0 0 0 127 0" result="hardAlpha"/>
<feOffset dy="40.0932"/>
<feGaussianBlur stdDeviation="20.0466"/>
<feColorMatrix type="matrix" values="0 0 0 0 0.054902 0 0 0 0 0.466667 0 0 0 0 1 0 0 0 0.149 0"/>
<feBlend mode="normal" in2="BackgroundImageFix" result="effect1_dropShadow_184_47"/>
<feBlend mode="normal" in="SourceGraphic" in2="effect1_dropShadow_184_47" result="shape"/>
</filter>
<filter id="filter1_d_184_47" x="315.068" y="728.61" width="673.94" height="709.781" filterUnits="userSpaceOnUse" color-interpolation-filters="sRGB">
<feFlood flood-opacity="0" result="BackgroundImageFix"/>
<feColorMatrix in="SourceAlpha" type="matrix" values="0 0 0 0 0 0 0 0 0 0 0 0 0 0 0 0 0 0 127 0" result="hardAlpha"/>
<feOffset dy="40.0932"/>
<feGaussianBlur stdDeviation="20.0466"/>
<feColorMatrix type="matrix" values="0 0 0 0 0.054902 0 0 0 0 0.466667 0 0 0 0 1 0 0 0 0.149 0"/>
<feBlend mode="normal" in2="BackgroundImageFix" result="effect1_dropShadow_184_47"/>
<feBlend mode="normal" in="SourceGraphic" in2="effect1_dropShadow_184_47" result="shape"/>
</filter>
<filter id="filter2_d_184_47" x="478.138" y="190.055" width="589.89" height="564.837" filterUnits="userSpaceOnUse" color-interpolation-filters="sRGB">
<feFlood flood-opacity="0" result="BackgroundImageFix"/>
<feColorMatrix in="SourceAlpha" type="matrix" values="0 0 0 0 0 0 0 0 0 0 0 0 0 0 0 0 0 0 127 0" result="hardAlpha"/>
<feOffset dy="40.0932"/>
<feGaussianBlur stdDeviation="20.0466"/>
<feColorMatrix type="matrix" values="0 0 0 0 0.054902 0 0 0 0 0.466667 0 0 0 0 1 0 0 0 0.149 0"/>
<feBlend mode="normal" in2="BackgroundImageFix" result="effect1_dropShadow_184_47"/>
<feBlend mode="normal" in="SourceGraphic" in2="effect1_dropShadow_184_47" result="shape"/>
</filter>
<filter id="filter3_d_184_47" x="823.663" y="656.179" width="247.128" height="247.128" filterUnits="userSpaceOnUse" color-interpolation-filters="sRGB">
<feFlood flood-opacity="0" result="BackgroundImageFix"/>
<feColorMatrix in="SourceAlpha" type="matrix" values="0 0 0 0 0 0 0 0 0 0 0 0 0 0 0 0 0 0 127 0" result="hardAlpha"/>
<feOffset dy="40"/>
<feGaussianBlur stdDeviation="20"/>
<feColorMatrix type="matrix" values="0 0 0 0 0.054902 0 0 0 0 0.466667 0 0 0 0 1 0 0 0 0.149 0"/>
<feBlend mode="normal" in2="BackgroundImageFix" result="effect1_dropShadow_184_47"/>
<feBlend mode="normal" in="SourceGraphic" in2="effect1_dropShadow_184_47" result="shape"/>
</filter>
<filter id="filter4_d_184_47" x="359.205" y="253.709" width="194.416" height="194.416" filterUnits="userSpaceOnUse" color-interpolation-filters="sRGB">
<feFlood flood-opacity="0" result="BackgroundImageFix"/>
<feColorMatrix in="SourceAlpha" type="matrix" values="0 0 0 0 0 0 0 0 0 0 0 0 0 0 0 0 0 0 127 0" result="hardAlpha"/>
<feOffset dy="40"/>
<feGaussianBlur stdDeviation="20"/>
<feColorMatrix type="matrix" values="0 0 0 0 0.054902 0 0 0 0 0.466667 0 0 0 0 1 0 0 0 0.149 0"/>
<feBlend mode="normal" in2="BackgroundImageFix" result="effect1_dropShadow_184_47"/>
<feBlend mode="normal" in="SourceGraphic" in2="effect1_dropShadow_184_47" result="shape"/>
</filter>
<filter id="filter5_d_184_47" x="794.873" y="1068.05" width="247.128" height="247.128" filterUnits="userSpaceOnUse" color-interpolation-filters="sRGB">
<feFlood flood-opacity="0" result="BackgroundImageFix"/>
<feColorMatrix in="SourceAlpha" type="matrix" values="0 0 0 0 0 0 0 0 0 0 0 0 0 0 0 0 0 0 127 0" result="hardAlpha"/>
<feOffset dy="40"/>
<feGaussianBlur stdDeviation="20"/>
<feColorMatrix type="matrix" values="0 0 0 0 0.054902 0 0 0 0 0.466667 0 0 0 0 1 0 0 0 0.149 0"/>
<feBlend mode="normal" in2="BackgroundImageFix" result="effect1_dropShadow_184_47"/>
<feBlend mode="normal" in="SourceGraphic" in2="effect1_dropShadow_184_47" result="shape"/>
</filter>
<clipPath id="clip0_184_47">
<rect width="1920" height="1080" fill="white"/>
</clipPath>
<clipPath id="clip1_184_47">
<rect width="1771.71" height="1436.31" fill="white" transform="translate(-670.706 96)"/>
</clipPath>
<clipPath id="clip2_184_47">
<rect width="542.536" height="458.691" fill="white" transform="translate(1397 -60)"/>
</clipPath>
</defs>
</svg>
