<svg width="1920" height="1167" viewBox="0 0 1920 1167" fill="none" xmlns="http://www.w3.org/2000/svg">
<g clip-path="url(#clip0_199_56)">
<rect width="1920" height="1167" fill="white"/>
<g clip-path="url(#clip1_199_56)">
<g filter="url(#filter0_d_199_56)">
<path d="M189.603 -143.761L780.964 334.959C785.037 338.256 787.633 343.036 788.181 348.248C788.73 353.459 787.186 358.675 783.889 362.748L145.517 1151.32C142.22 1155.4 137.44 1157.99 132.229 1158.54C127.017 1159.09 121.801 1157.55 117.728 1154.25L-473.632 675.529C-477.705 672.232 -480.301 667.452 -480.85 662.241C-481.398 657.03 -479.854 651.814 -476.557 647.741L161.815 -140.836C165.112 -144.909 169.892 -147.505 175.103 -148.054C180.315 -148.602 185.531 -147.058 189.603 -143.761Z" fill="#0E77FF"/>
</g>
<path d="M529.761 666.685L-89.0343 165.756L-310.967 439.908L307.828 940.837L529.761 666.685Z" fill="white"/>
<path d="M742.654 403.698L781.181 356.105C782.492 354.486 783.472 352.625 784.063 350.627C784.655 348.63 784.847 346.535 784.629 344.463C784.411 342.391 783.787 340.383 782.793 338.552C781.799 336.721 780.453 335.104 778.834 333.794L184.7 -147.173C181.429 -149.819 177.241 -151.059 173.057 -150.618C168.873 -150.177 165.035 -148.093 162.388 -144.823L123.86 -97.2298L742.654 403.698Z" fill="white"/>
<path d="M677.391 283.102L356.456 23.2976L338.756 45.1616L659.691 304.966L677.391 283.102Z" fill="#F0F6FF"/>
<path d="M753.838 344.988L731.974 327.288L714.274 349.152L736.138 366.852L753.838 344.988Z" fill="#F0F6FF"/>
<path d="M713.995 312.734L701.261 302.426C698.74 300.385 695.042 300.774 693.001 303.295L682.692 316.029C680.651 318.55 681.041 322.249 683.562 324.29L696.296 334.598C698.817 336.639 702.515 336.25 704.556 333.729L714.865 320.995C716.906 318.473 716.517 314.775 713.995 312.734Z" fill="#F0F6FF"/>
<path d="M643.1 393.95L432.214 223.233L292.628 395.663L503.513 566.38L643.1 393.95Z" fill="white"/>
<path d="M360.264 164.988L149.379 -5.72852L129.797 18.461L340.682 189.178L360.264 164.988Z" fill="white"/>
<path d="M121.689 192.088L41.6765 127.316L19.7106 154.45L99.7229 219.222L121.689 192.088Z" fill="white"/>
<path d="M320.096 214.608L109.21 43.8914L101.93 52.8851L312.815 223.602L320.096 214.608Z" fill="white"/>
<path d="M274.918 208.324L94.398 62.189L87.1173 71.1827L267.637 217.318L274.918 208.324Z" fill="white"/>
<path d="M185.028 165.845L79.5857 80.4866L72.305 89.4803L177.748 174.839L185.028 165.845Z" fill="white"/>
<path d="M214.875 220.294L64.774 98.7834L57.4933 107.777L207.594 229.287L214.875 220.294Z" fill="white"/>
<path d="M62.6341 579.355L-148.251 408.638L-155.532 417.631L55.3534 588.348L62.6341 579.355Z" fill="#F0F6FF"/>
<path d="M16.044 571.927L-131.286 452.66L-138.567 461.654L8.76333 580.921L16.044 571.927Z" fill="#F0F6FF"/>
<path d="M99.7368 424.724L-4.73553 340.151L-73.8865 425.573L30.5858 510.146L99.7368 424.724Z" fill="#F0F6FF"/>
<path d="M304.532 775.177L93.6465 604.46L86.3658 613.453L297.251 784.17L304.532 775.177Z" fill="#F0F6FF"/>
<path d="M257.942 767.749L110.612 648.482L103.331 657.476L250.661 776.743L257.942 767.749Z" fill="#F0F6FF"/>
<path d="M225.774 772.767L112.403 680.991L105.122 689.984L218.493 781.761L225.774 772.767Z" fill="#F0F6FF"/>
<path d="M341.635 620.546L237.162 535.973L168.011 621.395L272.484 705.968L341.635 620.546Z" fill="#F0F6FF"/>
<g filter="url(#filter1_d_199_56)">
<path d="M1068.08 645.985L835.566 457.76C831.125 454.166 824.611 454.851 821.016 459.292L480.466 879.971C476.871 884.412 477.557 890.926 481.998 894.521L714.51 1082.75C718.951 1086.34 725.465 1085.65 729.06 1081.21L1069.61 660.535C1073.2 656.094 1072.52 649.58 1068.08 645.985Z" fill="white"/>
</g>
<path d="M959.522 786.95L1059.18 663.849C1062.57 659.657 1064.16 654.287 1063.59 648.923C1063.03 643.558 1060.36 638.638 1056.16 635.244L840.498 460.657C838.422 458.976 836.035 457.721 833.474 456.963C830.913 456.204 828.228 455.958 825.571 456.237C822.915 456.517 820.34 457.317 817.992 458.592C815.645 459.866 813.572 461.591 811.891 463.667L712.238 586.768L959.522 786.95Z" fill="#0E77FF"/>
<path d="M878.841 491.697L879.507 492.235C881.622 493.948 883.228 496.207 884.152 498.767C885.076 501.327 885.281 504.092 884.747 506.76L881.957 520.693C881.378 523.578 881.6 526.566 882.599 529.334C883.598 532.102 885.335 534.544 887.622 536.395L932.827 572.99L951.21 550.281" fill="white"/>
<path d="M1017.82 604.204L1017.15 603.665C1015.04 601.952 1012.5 600.852 1009.8 600.482C1007.1 600.111 1004.36 600.486 1001.86 601.565L988.812 607.195C986.111 608.361 983.142 608.766 980.227 608.366C977.312 607.965 974.562 606.775 972.275 604.924L927.069 568.328L945.452 545.62" fill="white"/>
<path d="M866.721 826.464L698.673 690.425L676.781 717.469L844.829 853.507L866.721 826.464Z" fill="#F0F6FF"/>
<path d="M824.643 878.444L656.595 742.405L634.702 769.448L802.75 905.487L824.643 878.444Z" fill="#F0F6FF"/>
<path d="M706.684 868.998L618.098 797.286L596.206 824.329L684.791 896.041L706.684 868.998Z" fill="#0E77FF"/>
<path d="M958.717 648.43L850.578 560.889L763.037 669.028L871.176 756.569L958.717 648.43Z" fill="#F0F6FF"/>
<g filter="url(#filter2_d_199_56)">
<path d="M1147.98 187.201L816.272 -81.3224C812.848 -84.0939 807.826 -83.5652 805.055 -80.1416L643.008 120.034C640.236 123.458 640.765 128.48 644.189 131.251L975.893 399.774C979.317 402.546 984.339 402.017 987.111 398.593L1149.16 198.418C1151.93 194.994 1151.4 189.972 1147.98 187.201Z" fill="white"/>
</g>
<path d="M855.757 10.9894L814.339 -22.54L804.094 -9.88504L845.513 23.6444L855.757 10.9894Z" fill="#0E77FF"/>
<path d="M939.139 78.4893L863.932 17.6072L853.687 30.2622L928.895 91.1443L939.139 78.4893Z" fill="#F0F6FF"/>
<path d="M1086.56 197.828L947.314 85.1069L937.07 97.7619L1076.31 210.483L1086.56 197.828Z" fill="#0E77FF"/>
<path d="M866.52 64.5568L792.403 4.55713L782.158 17.2121L856.275 77.2118L866.52 64.5568Z" fill="#0E77FF"/>
<path d="M991.321 165.586L874.695 71.1743L864.45 83.8293L981.076 178.241L991.321 165.586Z" fill="#0E77FF"/>
<path d="M890.091 128.492L800.987 56.3591L790.742 69.0141L879.847 141.147L890.091 128.492Z" fill="#F0F6FF"/>
<path d="M792.812 49.7415L770.468 31.6533L760.223 44.3083L782.567 62.3965L792.812 49.7415Z" fill="#0E77FF"/>
<path d="M1042.69 252.021L898.266 135.109L888.022 147.764L1032.44 264.676L1042.69 252.021Z" fill="#F0F6FF"/>
<path d="M900.581 181.838L822.649 118.75L812.405 131.405L890.337 194.493L900.581 181.838Z" fill="#0E77FF"/>
<path d="M969.25 237.427L908.757 188.457L898.513 201.112L959.006 250.082L969.25 237.427Z" fill="#0E77FF"/>
<path d="M1020.75 279.118L977.424 244.044L967.18 256.699L1010.51 291.773L1020.75 279.118Z" fill="#0E77FF"/>
<path d="M814.475 112.133L748.532 58.7505L738.287 71.4055L804.231 124.788L814.475 112.133Z" fill="#F0F6FF"/>
<path d="M825.783 166.142L726.596 85.8477L716.352 98.5027L815.539 178.797L825.783 166.142Z" fill="#0E77FF"/>
<path d="M930.691 251.068L833.957 172.759L823.713 185.414L920.447 263.723L930.691 251.068Z" fill="#F0F6FF"/>
<g filter="url(#filter3_d_199_56)">
<path d="M1144.1 440.193L1080.49 388.815C1069.29 379.769 1052.88 381.515 1043.83 392.715L992.452 456.326C983.406 467.526 985.152 483.939 996.352 492.986L1059.96 544.363C1071.16 553.41 1087.58 551.664 1096.62 540.463L1148 476.853C1157.05 465.652 1155.3 449.239 1144.1 440.193Z" fill="white"/>
</g>
<g filter="url(#filter4_d_199_56)">
<path d="M626.931 14.1707L592.48 -13.6552C581.28 -22.7016 564.867 -20.9555 555.82 -9.75516L527.994 24.6959C518.948 35.8962 520.694 52.3095 531.894 61.3559L566.346 89.1817C577.546 98.2281 593.959 96.482 603.006 85.2817L630.831 50.8307C639.878 39.6303 638.132 23.2171 626.931 14.1707Z" fill="#0E77FF"/>
</g>
<g filter="url(#filter5_d_199_56)">
<path d="M492.311 993.062L428.7 941.685C417.5 932.638 401.087 934.384 392.04 945.585L340.662 1009.2C331.616 1020.4 333.362 1036.81 344.562 1045.86L408.173 1097.23C419.373 1106.28 435.787 1104.53 444.833 1093.33L496.211 1029.72C505.257 1018.52 503.511 1002.11 492.311 993.062Z" fill="#0E77FF"/>
</g>
<g filter="url(#filter6_d_199_56)">
<path d="M1115.31 852.062L1051.7 800.685C1040.5 791.638 1024.09 793.384 1015.04 804.585L963.662 868.195C954.616 879.396 956.362 895.809 967.562 904.855L1031.17 956.233C1042.37 965.279 1058.79 963.533 1067.83 952.333L1119.21 888.722C1128.26 877.522 1126.51 861.109 1115.31 852.062Z" fill="white"/>
</g>
</g>
</g>
<defs>
<filter id="filter0_d_199_56" x="-521.051" y="-148.162" width="1349.43" height="1387" filterUnits="userSpaceOnUse" color-interpolation-filters="sRGB">
<feFlood flood-opacity="0" result="BackgroundImageFix"/>
<feColorMatrix in="SourceAlpha" type="matrix" values="0 0 0 0 0 0 0 0 0 0 0 0 0 0 0 0 0 0 127 0" result="hardAlpha"/>
<feOffset dy="40.0932"/>
<feGaussianBlur stdDeviation="20.0466"/>
<feColorMatrix type="matrix" values="0 0 0 0 0.054902 0 0 0 0 0.466667 0 0 0 0 1 0 0 0 0.149 0"/>
<feBlend mode="normal" in2="BackgroundImageFix" result="effect1_dropShadow_199_56"/>
<feBlend mode="normal" in="SourceGraphic" in2="effect1_dropShadow_199_56" result="shape"/>
</filter>
<filter id="filter1_d_199_56" x="438.068" y="455.456" width="673.94" height="709.781" filterUnits="userSpaceOnUse" color-interpolation-filters="sRGB">
<feFlood flood-opacity="0" result="BackgroundImageFix"/>
<feColorMatrix in="SourceAlpha" type="matrix" values="0 0 0 0 0 0 0 0 0 0 0 0 0 0 0 0 0 0 127 0" result="hardAlpha"/>
<feOffset dy="40.0932"/>
<feGaussianBlur stdDeviation="20.0466"/>
<feColorMatrix type="matrix" values="0 0 0 0 0.054902 0 0 0 0 0.466667 0 0 0 0 1 0 0 0 0.149 0"/>
<feBlend mode="normal" in2="BackgroundImageFix" result="effect1_dropShadow_199_56"/>
<feBlend mode="normal" in="SourceGraphic" in2="effect1_dropShadow_199_56" result="shape"/>
</filter>
<filter id="filter2_d_199_56" x="601.138" y="-83.0991" width="589.89" height="564.837" filterUnits="userSpaceOnUse" color-interpolation-filters="sRGB">
<feFlood flood-opacity="0" result="BackgroundImageFix"/>
<feColorMatrix in="SourceAlpha" type="matrix" values="0 0 0 0 0 0 0 0 0 0 0 0 0 0 0 0 0 0 127 0" result="hardAlpha"/>
<feOffset dy="40.0932"/>
<feGaussianBlur stdDeviation="20.0466"/>
<feColorMatrix type="matrix" values="0 0 0 0 0.054902 0 0 0 0 0.466667 0 0 0 0 1 0 0 0 0.149 0"/>
<feBlend mode="normal" in2="BackgroundImageFix" result="effect1_dropShadow_199_56"/>
<feBlend mode="normal" in="SourceGraphic" in2="effect1_dropShadow_199_56" result="shape"/>
</filter>
<filter id="filter3_d_199_56" x="946.663" y="383.025" width="247.128" height="247.128" filterUnits="userSpaceOnUse" color-interpolation-filters="sRGB">
<feFlood flood-opacity="0" result="BackgroundImageFix"/>
<feColorMatrix in="SourceAlpha" type="matrix" values="0 0 0 0 0 0 0 0 0 0 0 0 0 0 0 0 0 0 127 0" result="hardAlpha"/>
<feOffset dy="40"/>
<feGaussianBlur stdDeviation="20"/>
<feColorMatrix type="matrix" values="0 0 0 0 0.054902 0 0 0 0 0.466667 0 0 0 0 1 0 0 0 0.149 0"/>
<feBlend mode="normal" in2="BackgroundImageFix" result="effect1_dropShadow_199_56"/>
<feBlend mode="normal" in="SourceGraphic" in2="effect1_dropShadow_199_56" result="shape"/>
</filter>
<filter id="filter4_d_199_56" x="482.205" y="-19.4448" width="194.416" height="194.416" filterUnits="userSpaceOnUse" color-interpolation-filters="sRGB">
<feFlood flood-opacity="0" result="BackgroundImageFix"/>
<feColorMatrix in="SourceAlpha" type="matrix" values="0 0 0 0 0 0 0 0 0 0 0 0 0 0 0 0 0 0 127 0" result="hardAlpha"/>
<feOffset dy="40"/>
<feGaussianBlur stdDeviation="20"/>
<feColorMatrix type="matrix" values="0 0 0 0 0.054902 0 0 0 0 0.466667 0 0 0 0 1 0 0 0 0.149 0"/>
<feBlend mode="normal" in2="BackgroundImageFix" result="effect1_dropShadow_199_56"/>
<feBlend mode="normal" in="SourceGraphic" in2="effect1_dropShadow_199_56" result="shape"/>
</filter>
<filter id="filter5_d_199_56" x="294.873" y="935.895" width="247.128" height="247.127" filterUnits="userSpaceOnUse" color-interpolation-filters="sRGB">
<feFlood flood-opacity="0" result="BackgroundImageFix"/>
<feColorMatrix in="SourceAlpha" type="matrix" values="0 0 0 0 0 0 0 0 0 0 0 0 0 0 0 0 0 0 127 0" result="hardAlpha"/>
<feOffset dy="40"/>
<feGaussianBlur stdDeviation="20"/>
<feColorMatrix type="matrix" values="0 0 0 0 0.054902 0 0 0 0 0.466667 0 0 0 0 1 0 0 0 0.149 0"/>
<feBlend mode="normal" in2="BackgroundImageFix" result="effect1_dropShadow_199_56"/>
<feBlend mode="normal" in="SourceGraphic" in2="effect1_dropShadow_199_56" result="shape"/>
</filter>
<filter id="filter6_d_199_56" x="917.873" y="794.895" width="247.128" height="247.127" filterUnits="userSpaceOnUse" color-interpolation-filters="sRGB">
<feFlood flood-opacity="0" result="BackgroundImageFix"/>
<feColorMatrix in="SourceAlpha" type="matrix" values="0 0 0 0 0 0 0 0 0 0 0 0 0 0 0 0 0 0 127 0" result="hardAlpha"/>
<feOffset dy="40"/>
<feGaussianBlur stdDeviation="20"/>
<feColorMatrix type="matrix" values="0 0 0 0 0.054902 0 0 0 0 0.466667 0 0 0 0 1 0 0 0 0.149 0"/>
<feBlend mode="normal" in2="BackgroundImageFix" result="effect1_dropShadow_199_56"/>
<feBlend mode="normal" in="SourceGraphic" in2="effect1_dropShadow_199_56" result="shape"/>
</filter>
<clipPath id="clip0_199_56">
<rect width="1920" height="1167" fill="white"/>
</clipPath>
<clipPath id="clip1_199_56">
<rect width="1771.71" height="1436.31" fill="white" transform="translate(-547.706 -177.154)"/>
</clipPath>
</defs>
</svg>
