<svg width="1920" height="1147" viewBox="0 0 1920 1147" fill="none" xmlns="http://www.w3.org/2000/svg">
<g clip-path="url(#clip0_190_266)">
<rect width="1920" height="1147" fill="white"/>
<g clip-path="url(#clip1_190_266)">
<path d="M143.356 998.319C139.581 992.8 128.256 979.211 130.993 973.092C136.887 959.922 183.803 950.428 227.149 1001.38" fill="#0E77FF"/>
<path d="M244.656 1020.57C197.747 1026.55 142.368 1031.41 97.9561 1006.01C68.5291 989.188 92.6811 965.549 118.995 966.568C85.7951 962.58 43.646 936.568 34.389 902.357C33.4392 898.615 34.0048 894.649 35.9629 891.321C37.921 887.994 41.1134 885.574 44.8461 884.587C48.0341 883.731 62.416 886.237 65.591 885.9C37.198 876.276 -17.7239 814.632 5.64406 784.276C26.9951 756.537 65.3921 799.49 82.4681 809.746C72.7861 794.376 69.3551 767.924 91.6131 766.806C123.49 765.212 153.78 835.592 167.481 857.275C168.062 848.231 167.337 824.285 175.375 820.047C192.651 810.928 250.605 839.992 254.268 930.517C254.914 946.428 259.782 996.013 244.656 1020.57Z" fill="#0E77FF"/>
<path d="M221.255 967.367C188.271 948.878 150.375 925.639 133.93 888.174C123.042 863.354 149.806 859.666 166.238 872.848C146.799 854.472 132.104 817.7 142.438 791.311C143.61 788.454 145.862 786.175 148.705 784.97C151.548 783.764 154.752 783.729 157.62 784.873C160.077 785.842 168.12 794.299 170.32 795.592C156.657 775.892 150.72 710.136 180.189 701.754C207.11 694.103 211.329 739.982 217.423 754.701C218.517 740.213 228.905 721.586 243.737 731.462C264.982 745.613 250.931 805.255 249.413 825.706C254.094 820.174 265.027 804.448 272.213 805.548C287.658 807.917 311.053 854.183 270.307 914.087C263.146 924.614 242.669 958.798 221.255 967.367Z" fill="#1F9BD9"/>
<path d="M504.656 911.563C496.524 874.635 488.686 830.876 505.725 793.686C517.019 769.047 537.577 786.579 538.659 807.618C539.453 780.885 557.141 745.451 583.724 735.626C586.636 734.6 589.836 734.765 592.627 736.085C595.418 737.406 597.576 739.774 598.631 742.676C599.537 745.157 598.575 756.789 599.069 759.296C604.694 735.988 649.86 687.829 675.712 704.261C699.332 719.281 667.88 752.939 660.936 767.278C672.481 758.459 693.301 753.833 695.789 771.478C699.345 796.755 645.466 825.926 629.178 838.389C636.422 838.208 655.442 835.914 659.393 842.008C667.893 855.115 648.905 903.356 577.068 912.763C564.443 914.42 525.295 921.858 504.656 911.563Z" fill="#1F9BD9"/>
<path d="M704.013 995.694C708.845 1001.65 717.864 1005.14 728.052 1005.33L730.202 1022.01H770.411L773.961 1001.11C761.754 1000.38 739.461 994.807 721.626 966.907C713.469 968.145 704.35 971.514 701.268 980.295C700.324 982.875 700.081 985.66 700.564 988.365C701.046 991.07 702.236 993.598 704.013 995.694ZM710.651 983.581C712.189 979.199 718.377 977.299 724.346 976.574L726.771 995.363C719.464 994.969 714.133 992.394 711.732 989.438C711.032 988.656 710.561 987.696 710.37 986.664C710.179 985.631 710.277 984.567 710.651 983.586V983.581Z" fill="#65B8E5"/>
<path d="M721.627 966.905C722.108 966.836 722.602 966.742 723.077 966.68L720.646 947.822C720.612 947.56 720.634 947.293 720.711 947.04C720.789 946.788 720.919 946.554 721.093 946.355C721.268 946.157 721.482 945.997 721.723 945.888C721.964 945.779 722.225 945.722 722.49 945.722H780.907C781.209 945.722 781.507 945.789 781.781 945.916C782.055 946.044 782.298 946.229 782.493 946.46C782.688 946.691 782.831 946.961 782.911 947.252C782.991 947.544 783.006 947.849 782.957 948.147L773.963 1001.11C761.754 1000.38 739.465 994.807 721.627 966.905Z" fill="#A3D0EC"/>
<path d="M748.435 937.89C754.242 934.802 759.779 923.677 762.067 918.532C764.355 913.387 765.023 907.225 762.486 902.2C760.348 897.95 756.242 895.025 753.686 891.012C752.376 888.93 751.503 886.604 751.119 884.175C750.736 881.746 750.849 879.264 751.454 876.88C753.192 870.186 758.686 864.848 759.942 858.047C761.417 850.071 756.786 842.402 754.754 834.547C752.888 827.266 753.251 819.592 755.798 812.52C750.129 815.889 746.741 821.964 743.616 827.765C740.76 833.065 737.822 838.728 738.234 844.729C738.496 848.504 740.072 852.036 741.397 855.58C743.791 861.993 745.428 869.031 743.722 875.663C741.134 885.689 731.259 893.527 731.646 903.871C731.877 910.003 735.853 915.441 740.64 919.271C743.759 921.771 747.365 923.853 749.553 927.197C751.741 930.541 751.816 935.766 748.434 937.891" fill="#F9FBFF"/>
<path d="M416.362 634.663C421.012 645.451 424.575 655.877 426.307 666.596C428.039 677.315 428.632 688.235 431.295 698.761C433.651 708.061 437.583 716.887 441.808 725.5C442.253 726.257 442.518 727.106 442.583 727.981C442.577 729.687 441.108 730.987 439.727 731.994C418.782 747.308 389.727 750.77 365.772 740.801" fill="#0E77FF"/>
<path d="M416.75 707.55C428.152 707.55 437.396 696.057 437.396 681.879C437.396 667.701 428.152 656.208 416.75 656.208C405.348 656.208 396.104 667.701 396.104 681.879C396.104 696.057 405.348 707.55 416.75 707.55Z" fill="#65B8E5"/>
<path d="M374.828 737.767C372.878 748.743 371.265 761.194 378.078 770.013C379.572 771.944 381.516 773.832 381.622 776.276C381.759 779.476 378.703 781.826 375.84 783.258C370.273 786.006 364.203 787.589 358.003 787.91C351.803 788.231 345.603 787.284 339.781 785.127C338.794 784.834 337.9 784.289 337.187 783.546C335.73 781.74 336.668 779.089 337.562 776.952C341.631 767.09 343.672 756.509 343.563 745.842C343.455 735.174 341.199 724.637 336.931 714.86" fill="#E8A17E"/>
<path d="M375.804 734.576C373.898 742.283 372.648 749.702 373.491 757.59C373.522 757.722 373.526 757.858 373.503 757.992C373.479 758.125 373.429 758.252 373.354 758.365C373.104 758.634 372.666 758.527 372.323 758.403C369.755 757.597 367.3 756.469 365.016 755.046C361.272 752.496 356.865 747.802 354.94 743.701C352.231 738.303 351.026 732.275 351.452 726.25" fill="#D88D6C"/>
<path d="M401.174 636.154C408.993 644.886 410.819 657.318 411.843 669C412.756 679.288 413.306 689.689 411.849 699.915C410.392 710.141 406.798 720.26 400.186 728.198C397.393 731.547 394.11 734.456 390.448 736.824C387.965 738.523 385.196 739.757 382.273 740.468C376.697 741.662 370.934 740.062 365.509 738.305C353.152 734.298 340.426 728.879 332.794 718.366C322.849 704.659 316.28 668.594 313.694 651.866" fill="#E8A17E"/>
<path d="M416.75 646.789C405.108 656.824 390.933 663.469 375.772 665.997C367.034 667.435 358.127 667.472 349.272 667.285C345.953 667.325 342.639 667.003 339.39 666.322C334.841 665.343 330.843 662.651 328.227 658.803C325.789 654.909 325.464 649.571 328.052 645.771" fill="#D88D6C"/>
<path d="M316.986 601.091C339.025 590.44 370.927 592.647 386.966 601.822C403.005 610.997 409.643 619.211 418.012 638.337C418.512 639.481 421.406 646.513 420.969 647.681C420.817 648.2 420.542 648.675 420.168 649.065C419.794 649.456 419.331 649.751 418.819 649.925C399.011 657.482 381.598 658.844 360.427 659.894C353.376 660.244 346.22 660.257 339.363 658.588C329.65 691.115 334.713 714.429 350.883 744.275C340.357 748.713 299.429 751.263 279.953 736.181C274.934 732.287 270.346 727.687 267.29 722.111C259.546 707.979 262.871 690.546 267.084 674.989C270.216 663.413 273.766 651.844 279.454 641.28C288.198 625.06 300.074 608.396 316.988 601.09" fill="#0E77FF"/>
<path d="M394.173 707.818C392.567 712.787 390.716 717.362 386.322 720.181C381.966 722.969 376.14 722.644 371.452 720.45C366.764 718.256 362.308 712.75 359.026 708.75C370.402 709.813 382.926 709.8 394.172 707.819" fill="white"/>
<path d="M374.592 678.485C376.067 677.618 377.744 677.154 379.456 677.138C381.167 677.123 382.852 677.557 384.343 678.397L385.399 676.841C383.628 675.8 381.612 675.249 379.558 675.246C377.503 675.242 375.485 675.786 373.711 676.822L374.592 678.485Z" fill="#161119"/>
<path d="M335.179 677.961L340.101 677.875V675.993H335.438L335.179 677.961Z" fill="#161119"/>
<path d="M380.939 681.879L386.9 700.141L377.515 700.902" fill="#D88D6C"/>
<path d="M362.321 667.352C361.939 667.124 361.545 666.917 361.14 666.733C360.896 666.62 360.652 666.508 360.409 666.408L360.678 666.521C360.065 666.265 359.44 666.034 358.803 665.827C358.019 665.577 357.222 665.37 356.415 665.208C355.896 665.102 355.377 665.014 354.852 664.939L355.152 664.983C353.644 664.78 352.12 664.73 350.602 664.833C350.133 664.871 349.665 664.914 349.202 664.977L349.502 664.939C347.965 665.146 346.455 665.512 344.995 666.033C344.545 666.189 344.101 666.364 343.664 666.552L343.933 666.433C342.294 667.132 340.73 667.995 339.264 669.008C339.134 669.083 338.99 669.132 338.841 669.151C338.691 669.171 338.54 669.16 338.395 669.121C338.111 669.041 337.87 668.855 337.72 668.602C337.645 668.472 337.596 668.328 337.576 668.179C337.557 668.03 337.567 667.878 337.607 667.733C337.697 667.455 337.88 667.216 338.126 667.058C340.431 665.462 342.976 664.242 345.664 663.445C347.863 662.809 350.144 662.5 352.433 662.526C354.313 662.553 356.184 662.799 358.008 663.257C359.348 663.595 360.655 664.051 361.914 664.62C362.439 664.845 362.951 665.102 363.445 665.389L363.464 665.401C363.712 665.556 363.897 665.796 363.983 666.076C364.022 666.221 364.031 666.373 364.01 666.522C363.99 666.672 363.94 666.815 363.864 666.945C363.792 667.072 363.696 667.183 363.582 667.272C363.467 667.361 363.335 667.426 363.195 667.464C362.9 667.543 362.585 667.503 362.32 667.351L362.321 667.352Z" fill="#3E3244"/>
<path d="M392.699 667.49C393.031 667.193 393.381 666.917 393.749 666.665C393.968 666.509 394.187 666.352 394.412 666.209L394.168 666.371C394.724 666.002 395.293 665.665 395.881 665.352C396.606 664.959 397.353 664.609 398.119 664.302C398.607 664.102 399.107 663.921 399.607 663.758L399.319 663.852C400.763 663.378 402.252 663.052 403.763 662.877C404.229 662.827 404.698 662.789 405.169 662.764L404.869 662.777C406.417 662.706 407.969 662.792 409.501 663.033C409.97 663.108 410.439 663.196 410.901 663.302L410.62 663.239C412.358 663.62 410.045 664.795 413.233 663.964C413.527 663.889 411.152 660.889 408.37 660.614C406.091 660.387 403.791 660.497 401.544 660.939C399.7 661.308 397.904 661.889 396.194 662.67C394.939 663.251 393.736 663.939 392.6 664.726C392.123 665.041 391.668 665.388 391.237 665.764L391.225 665.777C391.006 665.975 390.869 666.247 390.838 666.54C390.815 666.842 390.912 667.14 391.107 667.371C391.298 667.595 391.57 667.734 391.863 667.759C392.166 667.783 392.467 667.686 392.7 667.49H392.699Z" fill="#3E3244"/>
<path d="M362.172 679.597C362.172 679.597 356.715 671.771 348.727 678.484" stroke="#3E3244" stroke-width="5"/>
<path d="M408.937 677.907C408.937 677.907 403.48 670.081 395.492 676.794" stroke="#3E3244" stroke-width="5"/>
<path opacity="0.45" d="M347.381 704.653C351.836 704.653 355.448 701.041 355.448 696.586C355.448 692.131 351.836 688.519 347.381 688.519C342.926 688.519 339.314 692.131 339.314 696.586C339.314 701.041 342.926 704.653 347.381 704.653Z" fill="#F27B53"/>
<path opacity="0.45" d="M405.426 700.247C409.181 700.247 412.225 697.203 412.225 693.448C412.225 689.693 409.181 686.649 405.426 686.649C401.671 686.649 398.627 689.693 398.627 693.448C398.627 697.203 401.671 700.247 405.426 700.247Z" fill="#F27B53"/>
<path d="M384.21 678.328C384.216 673.601 386.097 669.07 389.44 665.729C392.783 662.387 397.315 660.508 402.042 660.504C406.768 660.508 411.3 662.388 414.642 665.73C417.984 669.072 419.863 673.604 419.868 678.33C419.863 683.057 417.984 687.589 414.642 690.932C411.3 694.275 406.769 696.156 402.042 696.162C397.314 696.156 392.781 694.275 389.439 690.932C386.096 687.589 384.215 683.056 384.21 678.328ZM386.266 678.328C386.272 682.51 387.936 686.519 390.894 689.476C393.851 692.433 397.86 694.098 402.042 694.104C406.223 694.096 410.23 692.431 413.186 689.474C416.142 686.517 417.806 682.509 417.812 678.328C417.807 674.147 416.144 670.139 413.187 667.182C410.231 664.226 406.223 662.563 402.042 662.558C397.86 662.563 393.851 664.225 390.894 667.182C387.937 670.138 386.272 674.146 386.266 678.328Z" fill="#161119"/>
<path d="M339.364 678.328C339.369 673.602 341.249 669.071 344.591 665.729C347.933 662.387 352.465 660.508 357.191 660.504C361.918 660.508 366.45 662.387 369.793 665.729C373.136 669.071 375.017 673.603 375.023 678.33C375.017 683.057 373.136 687.59 369.793 690.933C366.451 694.275 361.918 696.156 357.191 696.162C352.463 696.156 347.931 694.275 344.589 690.932C341.247 687.588 339.367 683.055 339.364 678.328ZM341.42 678.328C341.426 682.509 343.09 686.517 346.046 689.474C349.002 692.432 353.01 694.096 357.191 694.104C361.373 694.098 365.382 692.433 368.339 689.476C371.296 686.519 372.96 682.51 372.967 678.328C372.96 674.146 371.296 670.138 368.339 667.182C365.381 664.225 361.372 662.563 357.191 662.558C353.01 662.563 349.002 664.226 346.045 667.182C343.089 670.139 341.426 674.147 341.421 678.328H341.42Z" fill="#161119"/>
<path d="M381.765 730.937C382.022 728.269 379.465 725.84 376.054 725.511C372.643 725.182 369.669 727.077 369.412 729.744C369.154 732.412 371.711 734.841 375.122 735.17C378.533 735.499 381.507 733.604 381.765 730.937Z" fill="#161119"/>
<path d="M364.359 731.3C367.149 731.57 369.953 731.652 372.754 731.544L372.648 728.869C340.327 730.157 315.469 704.049 315.225 703.786L313.269 705.617C313.506 705.863 335.013 728.469 364.359 731.3Z" fill="#161119"/>
<path d="M412.381 657.37C409.975 639.256 401.149 619.299 386.692 609.06C373.741 599.891 356.415 599.303 342.145 605.191C329.845 610.26 321.706 621.567 317.693 634.743C314.274 645.969 313.818 657.501 313.024 669.158C312.762 673.008 307.155 673.033 307.418 669.158C308.174 658.063 308.593 647.006 311.418 636.212C315.1 622.167 322.631 609.273 334.832 602.212C349.358 593.812 368.603 592.918 383.604 600.318C395.804 606.337 404.724 618.069 410.387 630.895C414.004 638.796 416.493 647.165 417.781 655.759C418.287 659.553 412.887 661.191 412.381 657.365V657.37Z" fill="#65B8E5"/>
<path d="M313.696 714.189C325.098 714.189 334.342 702.696 334.342 688.518C334.342 674.34 325.098 662.847 313.696 662.847C302.293 662.847 293.05 674.34 293.05 688.518C293.05 702.696 302.293 714.189 313.696 714.189Z" fill="#65B8E5"/>
<path d="M95.087 640.038H271C272.565 640.038 273.833 638.77 273.833 637.205V521.213C273.833 519.648 272.565 518.38 271 518.38H95.087C93.5224 518.38 92.254 519.648 92.254 521.213L92.254 637.205C92.254 638.77 93.5224 640.038 95.087 640.038Z" fill="#F9FBFF" stroke="#0E77FF"/>
<path d="M183.302 538.006C187.943 537.875 192.538 538.952 196.638 541.131C200.109 542.993 203.017 545.754 205.057 549.125C206.894 552.133 207.986 555.536 208.245 559.051C208.284 559.362 208.245 559.677 208.133 559.969C208.021 560.262 207.838 560.521 207.601 560.726C207.137 561.177 206.516 561.428 205.87 561.426H201.226C200.575 561.425 199.946 561.197 199.445 560.782C198.909 560.345 198.545 559.731 198.42 559.051C197.42 555.026 195.622 552.04 193.026 550.094C190.197 548.075 186.78 547.049 183.307 547.175C179.623 547.075 176.001 548.133 172.95 550.2C171.589 551.085 170.478 552.305 169.722 553.741C168.966 555.178 168.59 556.784 168.631 558.407C168.569 560.943 169.346 563.428 170.843 565.476C172.842 567.994 175.102 570.292 177.587 572.333C179.962 574.49 181.852 576.323 183.256 577.833C184.747 579.484 185.966 581.362 186.869 583.396C187.919 585.793 188.433 588.39 188.377 591.006V593.269C188.38 593.652 188.306 594.031 188.157 594.383C188.009 594.736 187.79 595.054 187.514 595.319C187.249 595.595 186.931 595.814 186.578 595.963C186.225 596.111 185.846 596.186 185.464 596.182H181.47C181.087 596.185 180.708 596.111 180.356 595.962C180.003 595.814 179.685 595.595 179.42 595.319C179.142 595.055 178.922 594.737 178.773 594.384C178.623 594.031 178.548 593.652 178.551 593.269V591.76C178.65 588.995 177.857 586.27 176.288 583.991C174.26 581.364 171.943 578.974 169.381 576.865C167.414 575.242 165.556 573.492 163.818 571.627C162.337 569.96 161.136 568.065 160.261 566.014C159.244 563.609 158.745 561.017 158.798 558.407C158.769 554.69 159.881 551.053 161.986 547.988C164.18 544.796 167.2 542.26 170.724 540.65C174.665 538.837 178.964 537.933 183.302 538.006ZM177.477 611.73V605.58C177.473 605.197 177.547 604.818 177.696 604.466C177.844 604.113 178.063 603.795 178.34 603.53C178.605 603.255 178.923 603.036 179.276 602.888C179.628 602.739 180.007 602.664 180.39 602.667H186.546C186.928 602.663 187.307 602.738 187.66 602.886C188.013 603.035 188.331 603.254 188.596 603.53C188.872 603.795 189.091 604.113 189.239 604.466C189.388 604.818 189.462 605.197 189.459 605.58V611.73C189.463 612.113 189.388 612.494 189.24 612.847C189.091 613.201 188.872 613.52 188.596 613.786C188.331 614.062 188.013 614.281 187.66 614.43C187.307 614.578 186.928 614.653 186.546 614.649H180.39C180.007 614.652 179.628 614.577 179.276 614.428C178.923 614.28 178.605 614.061 178.34 613.786C178.063 613.52 177.844 613.201 177.695 612.847C177.546 612.494 177.472 612.114 177.476 611.73H177.477Z" fill="#0E77FF" stroke="#0E77FF"/>
<path d="M435.851 449.5H577.711C582.501 449.5 587.095 451.403 590.482 454.79C593.87 458.176 595.774 462.77 595.775 467.56V550.684C595.775 555.475 593.872 560.069 590.484 563.457C587.096 566.844 582.502 568.748 577.711 568.748H477.09L438.97 595.81V568.752H435.851C431.061 568.751 426.467 566.847 423.08 563.46C419.693 560.072 417.79 555.478 417.79 550.688V467.56C417.791 462.77 419.695 458.177 423.081 454.791C426.468 451.404 431.061 449.501 435.851 449.5Z" fill="white" stroke="#0E77FF"/>
<path d="M436.438 480.29H577.116C577.485 480.304 577.834 480.46 578.09 480.726C578.346 480.991 578.489 481.346 578.489 481.715C578.489 482.084 578.346 482.439 578.09 482.704C577.834 482.97 577.485 483.126 577.116 483.14H436.438C436.069 483.126 435.72 482.97 435.464 482.704C435.208 482.439 435.065 482.084 435.065 481.715C435.065 481.346 435.208 480.991 435.464 480.726C435.72 480.46 436.069 480.304 436.438 480.29Z" fill="#0E77FF"/>
<path d="M436.438 498.835H577.116C577.484 498.849 577.832 499.005 578.088 499.27C578.343 499.535 578.486 499.889 578.486 500.257C578.486 500.625 578.343 500.979 578.088 501.244C577.832 501.509 577.484 501.665 577.116 501.679H436.438C436.07 501.665 435.722 501.509 435.466 501.244C435.211 500.979 435.068 500.625 435.068 500.257C435.068 499.889 435.211 499.535 435.466 499.27C435.722 499.005 436.07 498.849 436.438 498.835Z" fill="#0E77FF"/>
<path d="M478.466 517.374H577.117C577.485 517.388 577.833 517.544 578.088 517.809C578.344 518.074 578.487 518.428 578.487 518.796C578.487 519.164 578.344 519.518 578.088 519.783C577.833 520.048 577.485 520.204 577.117 520.218H478.466C478.098 520.204 477.75 520.048 477.494 519.783C477.239 519.518 477.096 519.164 477.096 518.796C477.096 518.428 477.239 518.074 477.494 517.809C477.75 517.544 478.098 517.388 478.466 517.374Z" fill="#0E77FF"/>
<path d="M478.466 535.912H577.117C577.485 535.926 577.833 536.082 578.088 536.347C578.344 536.612 578.487 536.966 578.487 537.334C578.487 537.702 578.344 538.056 578.088 538.321C577.833 538.586 577.485 538.742 577.117 538.756H478.466C478.098 538.742 477.75 538.586 477.494 538.321C477.239 538.056 477.096 537.702 477.096 537.334C477.096 536.966 477.239 536.612 477.494 536.347C477.75 536.082 478.098 535.926 478.466 535.912Z" fill="#0E77FF"/>
<path d="M510.337 599.023H602.493C605.605 599.025 608.589 600.262 610.79 602.463C612.99 604.664 614.226 607.649 614.226 610.761V664.761C614.226 667.873 612.99 670.857 610.79 673.059C608.59 675.26 605.606 676.497 602.494 676.499H537.127L512.363 694.075V676.497H510.338C507.225 676.497 504.24 675.26 502.039 673.059C499.837 670.859 498.6 667.874 498.599 664.761V610.761C498.6 607.648 499.837 604.663 502.038 602.462C504.239 600.26 507.224 599.023 510.337 599.023Z" fill="white" stroke="#0E77FF"/>
<path d="M510.718 619.031H602.103C602.347 619.031 602.582 619.128 602.755 619.301C602.928 619.474 603.025 619.708 603.025 619.953C603.025 620.198 602.928 620.432 602.755 620.605C602.582 620.778 602.347 620.875 602.103 620.875H510.716C510.471 620.875 510.237 620.778 510.064 620.605C509.891 620.432 509.794 620.198 509.794 619.953C509.794 619.708 509.891 619.474 510.064 619.301C510.237 619.128 510.471 619.031 510.716 619.031H510.718Z" fill="#0E77FF"/>
<path d="M510.718 631.069H602.103C602.341 631.08 602.565 631.182 602.73 631.355C602.894 631.527 602.986 631.756 602.986 631.994C602.986 632.232 602.894 632.461 602.73 632.633C602.565 632.806 602.341 632.908 602.103 632.919H510.716C510.478 632.908 510.254 632.806 510.089 632.633C509.925 632.461 509.833 632.232 509.833 631.994C509.833 631.756 509.925 631.527 510.089 631.355C510.254 631.182 510.478 631.08 510.716 631.069H510.718Z" fill="#0E77FF"/>
<path d="M538.02 643.114H602.106C602.344 643.125 602.569 643.227 602.733 643.4C602.897 643.572 602.989 643.801 602.989 644.039C602.989 644.277 602.897 644.506 602.733 644.678C602.569 644.851 602.344 644.953 602.106 644.964H538.02C537.782 644.953 537.558 644.851 537.393 644.678C537.229 644.506 537.137 644.277 537.137 644.039C537.137 643.801 537.229 643.572 537.393 643.4C537.558 643.227 537.782 643.125 538.02 643.114Z" fill="#0E77FF"/>
<path d="M538.02 655.158H602.106C602.344 655.169 602.569 655.271 602.733 655.444C602.897 655.616 602.989 655.845 602.989 656.083C602.989 656.321 602.897 656.55 602.733 656.722C602.569 656.895 602.344 656.997 602.106 657.008H538.02C537.782 656.997 537.558 656.895 537.393 656.722C537.229 656.55 537.137 656.321 537.137 656.083C537.137 655.845 537.229 655.616 537.393 655.444C537.558 655.271 537.782 655.169 538.02 655.158Z" fill="#0E77FF"/>
<path d="M339.695 771.222C312.656 772.366 283.395 780.529 263.602 798.986C261.822 800.438 260.431 802.308 259.552 804.43C258.483 807.599 259.577 811.043 260.59 814.23C272.29 851.337 272.911 891.052 262.378 928.507C259.615 938.239 256.096 947.858 255.146 957.928C254.196 967.998 256.196 978.905 263.159 986.242C266.247 989.325 269.843 991.852 273.791 993.711C295.436 1004.65 320.85 1004.24 345.083 1003.24C360.028 1002.62 375.116 1001.84 389.499 997.749C403.882 993.661 417.699 985.936 426.433 973.804C435.453 961.284 438.271 945.383 439.422 930.004C442.022 895.064 437.285 860.024 436.628 824.997C436.434 814.803 436.647 804.308 440.622 794.92C422.158 782.157 400.094 774.4 378.08 770.02C373.355 776.314 366.717 779.183 358.854 779.583C350.991 779.983 345.041 777.008 339.696 771.226" fill="#A3D0EC"/>
<path d="M266.594 953.535C267.469 943.459 260.319 931.808 262.869 922.077C269.345 897.344 281.552 873.286 278.926 847.741C284.477 850.522 289.508 854.204 292.371 859.686C294.721 864.199 295.328 869.443 295.384 874.556C295.497 884.763 293.596 894.889 293.19 905.089C292.784 915.289 294.065 926.04 299.809 934.389C306.441 944.033 317.873 948.896 329.024 951.884C336.545 953.814 344.162 955.347 351.844 956.478C360.651 957.872 369.614 959.034 378.458 957.897C387.302 956.76 396.134 953.078 401.947 946.171C411.16 935.214 410.885 919.307 412.542 904.956C414.367 889.18 419.09 873.876 426.475 859.816C428.681 855.628 431.275 851.403 435.263 848.947L435.294 848.928C436.663 874.511 451.47 901.375 449.714 926.896C448.658 942.285 433.1 956.896 424.775 969.405C416.706 981.543 403.949 989.269 390.666 993.357C377.383 997.445 363.445 998.22 349.651 998.845C327.275 999.851 303.804 1000.26 283.815 989.319C280.128 987.426 276.804 984.897 273.995 981.85C267.571 974.505 265.721 963.604 266.594 953.535Z" fill="#65B8E5"/>
<path d="M429.366 787.974C421.015 825.102 428.21 868.911 437.485 905.82C440.242 916.783 439.66 928.803 435.729 934.378C431.66 940.153 424.641 943.597 418.229 946.554C403.322 953.423 392.965 961.53 381.583 973.362C377.026 978.1 372.845 983.444 370.876 989.719C368.907 995.994 369.476 1003.37 373.67 1008.43C377.683 1013.28 384.308 1015.28 390.596 1015.28C396.884 1015.27 403.016 1013.53 409.141 1012.1C419.398 1009.7 429.832 1008.13 440.341 1007.42C449.429 1006.8 458.68 1006.81 467.424 1004.25C479.869 1000.6 490.557 991.746 497.107 980.557C503.563 969.193 506.27 956.083 504.845 943.092C503.976 936.193 502.552 929.374 500.588 922.703C493.119 894.903 482.824 870.562 473.388 843.366C469.525 832.234 462.431 819.666 455.631 810.051C448.831 800.436 440.974 789.951 429.36 787.974" fill="#A3D0EC"/>
<path d="M357.902 989.968C357.902 989.968 382.754 983.799 392.054 989.124C401.354 994.449 415.474 1002.22 415.054 1012.12L415.06 1016.18C415.06 1016.18 348.431 1018.13 343.018 1012.12" fill="#E8A17E"/>
<path d="M283.647 785.18C271.452 786.593 258.12 800.8 249.682 813.088C241.244 825.376 235.5 839.265 229.824 853.047L197.941 930.435C194.647 938.435 191.335 946.499 189.734 954.999C188.403 962.07 188.283 969.315 189.378 976.426C190.278 982.239 192.059 988.064 195.697 992.683C200.835 999.221 208.948 1002.55 216.717 1005.5C233.117 1011.73 249.944 1017.58 267.452 1018.79C274.359 1019.15 281.279 1019.14 288.185 1018.76C307.268 1018.07 326.438 1017.36 345.22 1013.88C346.591 1013.73 347.906 1013.26 349.058 1012.5C350.112 1011.53 350.918 1010.33 351.408 1008.99L357.071 996.602C358.127 994.296 359.209 991.864 359.002 989.339C358.733 985.945 356.239 983.195 353.739 980.882C347.101 974.749 339.513 969.734 331.269 966.031C314.349 958.437 295.023 956.537 279.122 946.986C277.163 945.88 275.365 944.511 273.778 942.917C267.915 936.692 268.265 926.672 271.553 918.784C274.841 910.896 277.141 903.364 280.373 895.445C287.548 877.845 291.136 866.355 291.53 851.311C292.093 829.891 290.486 805.489 283.648 785.181" fill="#A3D0EC"/>
<path d="M11.743 1038.25H872.752C873.441 1038.25 874 1037.69 874 1037V1023.26C874 1022.57 873.441 1022.02 872.752 1022.02L11.743 1022.02C11.0537 1022.02 10.495 1022.57 10.495 1023.26V1037C10.495 1037.69 11.0537 1038.25 11.743 1038.25Z" fill="#0E77FF"/>
<path d="M242.564 1022.01H545.224C545.337 1022.01 545.43 1021.92 545.43 1021.81V1014.68C545.43 1014.57 545.337 1014.47 545.224 1014.47H242.564C242.45 1014.47 242.358 1014.57 242.358 1014.68V1021.81C242.358 1021.92 242.45 1022.01 242.564 1022.01Z" fill="#0E77FF"/>
<path d="M412.437 1022.01H671.004L683.496 842.492H430.107L412.437 1022.01Z" fill="#0E77FF"/>
<path d="M421.23 1022.01H679.797L692.288 842.493H438.9L421.23 1022.01Z" fill="#F9FBFF"/>
<path opacity="0.27" d="M556.759 947.693C565.286 947.693 572.199 940.78 572.199 932.253C572.199 923.726 565.286 916.813 556.759 916.813C548.232 916.813 541.319 923.726 541.319 932.253C541.319 940.78 548.232 947.693 556.759 947.693Z" fill="#26476D"/>
<path opacity="0.07" d="M690.118 873.523L679.799 1021.86H421.231L424.681 986.799C560.783 969.205 654.516 902.819 690.118 873.523Z" fill="#26476D"/>
</g>
<g clip-path="url(#clip2_190_266)">
<path d="M336 0H519L427.5 158.483L336 0Z" fill="#0E77FF"/>
</g>
<path d="M0 1020H653H1306H1920V1147H0V1020Z" fill="#0E77FF"/>
<path d="M1918.05 1124.35H1014L1918.05 217.49L1918.05 1124.35Z" fill="#0E77FF"/>
<path d="M1918.05 1124.35H1014L1918.05 217.49M1918.05 1124.35H1920M1918.05 1124.35V1125M1918.05 1124.35L1918.05 217.49M1918.05 217.49L1919.54 216M1918.05 217.49V216.46" stroke="#0E77FF"/>
</g>
<defs>
<clipPath id="clip0_190_266">
<rect width="1920" height="1147" fill="white"/>
</clipPath>
<clipPath id="clip1_190_266">
<rect width="874" height="589.246" fill="white" transform="translate(0 449)"/>
</clipPath>
<clipPath id="clip2_190_266">
<rect width="183.001" height="158.483" fill="white" transform="translate(336)"/>
</clipPath>
</defs>
</svg>
